<svg width="108" height="108" viewBox="0 0 108 108" fill="none" xmlns="http://www.w3.org/2000/svg">
<path d="M96.6197 0H11.3803C5.09518 0 0 5.09513 0 11.3803V96.6197C0 102.905 5.09518 108 11.3803 108H96.6197C102.905 108 108 102.905 108 96.6197V11.3803C108 5.09513 102.905 0 96.6197 0Z" fill="#C6C6C6"/>
<path opacity="0.15" d="M38.7044 31.2891H69.2987C69.2987 31.2891 95.0624 53.6009 69.2987 76.7096H38.7044C38.7044 76.7096 12.9408 55.9915 38.7044 31.2891Z" fill="black"/>
<path opacity="0.5" d="M46.428 44.4121H42.3906V55.5149H46.428V44.4121Z" fill="#3F3D56"/>
<path opacity="0.5" d="M65.6077 42.3926H61.5703V56.5234H65.6077V42.3926Z" fill="#3F3D56"/>
<path opacity="0.5" d="M53.9991 63.5879C55.2037 63.5879 56.359 64.0519 57.2108 64.8779C58.0626 65.7039 58.5411 66.8242 58.5411 67.9923V71.6627H49.457V67.9923C49.457 66.8242 49.9356 65.7039 50.7874 64.8779C51.6392 64.0519 52.7945 63.5879 53.9991 63.5879Z" fill="#3F3D56"/>
</svg>
