<svg width="223" height="181" viewBox="0 0 223 181" fill="none" xmlns="http://www.w3.org/2000/svg">
<g clip-path="url(#clip0)">
<path d="M57.2006 74.8946C68.3268 74.8946 77.3465 65.8573 77.3465 54.7093C77.3465 43.5612 68.3268 34.5239 57.2006 34.5239C46.0743 34.5239 37.0547 43.5612 37.0547 54.7093C37.0547 65.8573 46.0743 74.8946 57.2006 74.8946Z" fill="url(#paint0_linear)"/>
<path d="M222.269 48.4658V101.557C222.269 111.847 220.246 122.036 216.316 131.543C212.386 141.05 206.626 149.689 199.364 156.965C192.102 164.241 183.48 170.013 173.992 173.951C164.504 177.888 154.334 179.915 144.064 179.915H0.129135V126.824C0.129135 98.4538 15.1775 73.6028 37.7153 59.8517C41.599 57.4799 45.6833 55.4547 49.921 53.7994C52.4149 52.8233 54.958 51.9784 57.5399 51.2684C57.5903 51.2516 57.6431 51.2372 57.6935 51.2252C58.4563 51.0161 59.224 50.819 59.9964 50.6339C60.0396 50.6219 60.0804 50.6123 60.1236 50.6026C64.8843 49.4661 69.741 48.7797 74.6298 48.5524C75.2079 48.5259 75.7861 48.5043 76.369 48.4923C76.5777 48.4851 76.7888 48.4802 77.0023 48.4802C77.4437 48.4706 77.8875 48.4658 78.3337 48.4658H222.269Z" fill="#F1F1F1"/>
<g opacity="0.1">
<path opacity="0.1" d="M84.571 171.834C95.1701 171.834 103.762 169.443 103.762 166.493C103.762 163.543 95.1701 161.151 84.571 161.151C73.9719 161.151 65.3797 163.543 65.3797 166.493C65.3797 169.443 73.9719 171.834 84.571 171.834Z" fill="black"/>
</g>
<g opacity="0.1">
<path opacity="0.1" d="M126.072 162.219C136.671 162.219 145.263 159.828 145.263 156.878C145.263 153.928 136.671 151.537 126.072 151.537C115.473 151.537 106.881 153.928 106.881 156.878C106.881 159.828 115.473 162.219 126.072 162.219Z" fill="black"/>
</g>
<g opacity="0.1">
<path opacity="0.57" d="M84.571 171.3C94.1101 171.3 101.843 169.148 101.843 166.493C101.843 163.838 94.1101 161.686 84.571 161.686C75.0318 161.686 67.2988 163.838 67.2988 166.493C67.2988 169.148 75.0318 171.3 84.571 171.3Z" fill="black"/>
</g>
<g opacity="0.1">
<path opacity="0.57" d="M126.072 161.685C135.611 161.685 143.344 159.533 143.344 156.878C143.344 154.223 135.611 152.071 126.072 152.071C116.533 152.071 108.8 154.223 108.8 156.878C108.8 159.533 116.533 161.685 126.072 161.685Z" fill="black"/>
</g>
<path d="M33.2342 71.5501C34.1616 71.5501 34.9135 70.7968 34.9135 69.8676C34.9135 68.9384 34.1616 68.1851 33.2342 68.1851C32.3068 68.1851 31.555 68.9384 31.555 69.8676C31.555 70.7968 32.3068 71.5501 33.2342 71.5501Z" fill="#F2F2F2"/>
<path d="M177.649 137.409C178.576 137.409 179.328 136.656 179.328 135.726C179.328 134.797 178.576 134.044 177.649 134.044C176.721 134.044 175.97 134.797 175.97 135.726C175.97 136.656 176.721 137.409 177.649 137.409Z" fill="#F2F2F2"/>
<path d="M98.4848 83.3275C99.4122 83.3275 100.164 82.5742 100.164 81.6449C100.164 80.7157 99.4122 79.9624 98.4848 79.9624C97.5573 79.9624 96.8055 80.7157 96.8055 81.6449C96.8055 82.5742 97.5573 83.3275 98.4848 83.3275Z" fill="#F2F2F2"/>
<path d="M181.727 72.5113C182.257 72.5113 182.686 72.0808 182.686 71.5498C182.686 71.0188 182.257 70.5884 181.727 70.5884C181.197 70.5884 180.767 71.0188 180.767 71.5498C180.767 72.0808 181.197 72.5113 181.727 72.5113Z" fill="#3A4554"/>
<path d="M121.633 12.4542C122.693 12.4542 123.552 11.5934 123.552 10.5316C123.552 9.4697 122.693 8.60889 121.633 8.60889C120.574 8.60889 119.715 9.4697 119.715 10.5316C119.715 11.5934 120.574 12.4542 121.633 12.4542Z" fill="#3A4554"/>
<path d="M37.0725 120.584C37.6025 120.584 38.0321 120.153 38.0321 119.622C38.0321 119.091 37.6025 118.661 37.0725 118.661C36.5426 118.661 36.1129 119.091 36.1129 119.622C36.1129 120.153 36.5426 120.584 37.0725 120.584Z" fill="#3A4554"/>
<path d="M22.679 139.89H22.2419V139.452H22.1565V139.89H21.7194V139.976H22.1565V140.414H22.2419V139.976H22.679V139.89Z" fill="#F2F2F2"/>
<path d="M163.015 104.316H162.578V103.878H162.493V104.316H162.056V104.402H162.493V104.84H162.578V104.402H163.015V104.316Z" fill="#F2F2F2"/>
<path d="M199.239 97.1054H198.802V96.6675H198.716V97.1054H198.279V97.191H198.716V97.6289H198.802V97.191H199.239V97.1054Z" fill="#F2F2F2"/>
<path d="M121.274 116.334H120.837V115.896H120.752V116.334H120.315V116.42H120.752V116.858H120.837V116.42H121.274V116.334Z" fill="#F2F2F2"/>
<path d="M188.684 118.738H188.247V118.3H188.161V118.738H187.724V118.824H188.161V119.262H188.247V118.824H188.684V118.738Z" fill="#F2F2F2"/>
<path d="M107.361 129.074H106.924V128.636H106.838V129.074H106.401V129.159H106.838V129.597H106.924V129.159H107.361V129.074Z" fill="#F2F2F2"/>
<path d="M138.067 129.554H137.63V129.116H137.544V129.554H137.107V129.64H137.544V130.078H137.63V129.64H138.067V129.554Z" fill="#F2F2F2"/>
<path d="M23.1588 88.6928H22.7217V88.2549H22.6363V88.6928H22.1992V88.7784H22.6363V89.2163H22.7217V88.7784H23.1588V88.6928Z" fill="#F2F2F2"/>
<g opacity="0.1">
<path opacity="0.1" d="M165.114 71.0861L164.259 75.9929C157.834 59.2814 147.613 69.5468 147.437 69.7264C148.493 68.3031 149.892 67.171 151.503 66.4358C153.114 65.7006 154.884 65.3863 156.649 65.522C158.414 65.6578 160.116 66.2393 161.597 67.2122C163.077 68.1852 164.287 69.5179 165.114 71.0861Z" fill="black"/>
</g>
<path d="M115.517 84.8471H115.08V84.4092H114.994V84.8471H114.557V84.9327H114.994V85.3706H115.08V84.9327H115.517V84.8471Z" fill="#F2F2F2"/>
<path d="M154.859 71.3872H154.422V70.9492H154.337V71.3872H153.9V71.4727H154.337V71.9107H154.422V71.4727H154.859V71.3872Z" fill="#F2F2F2"/>
<path d="M150.541 75.4731H150.104V75.0352H150.019V75.4731H149.582V75.5587H150.019V75.9966H150.104V75.5587H150.541V75.4731Z" fill="#F2F2F2"/>
<path d="M133.509 65.3003C134.039 65.3003 134.468 64.8699 134.468 64.3389C134.468 63.8079 134.039 63.3774 133.509 63.3774C132.979 63.3774 132.549 63.8079 132.549 64.3389C132.549 64.8699 132.979 65.3003 133.509 65.3003Z" fill="#F2F2F2"/>
<path d="M86.24 71.1159C86.24 138.187 77.8226 138.187 67.4422 138.187C62.0755 138.187 57.234 138.187 53.8102 128.922C52.8259 126.26 51.9563 122.826 51.2273 118.407C49.5857 108.472 48.6444 93.542 48.6444 71.1159C48.6444 62.4922 49.6632 54.0382 51.2273 46.1421C51.9792 42.3406 52.8574 38.6715 53.8102 35.172C54.9754 30.8875 56.2525 26.8589 57.5411 23.1724C58.4049 20.6937 59.2774 18.3675 60.124 16.2194C64.0357 6.30468 67.4422 0.162598 67.4422 0.162598C67.4422 0.162598 86.24 34.0735 86.24 71.1159Z" fill="url(#paint1_linear)"/>
<g opacity="0.1">
<path opacity="0.16" d="M60.1241 16.2197V133.155H57.5411V23.1727C58.405 20.694 59.2775 18.3678 60.1241 16.2197Z" fill="black"/>
</g>
<path d="M66.8683 56.8102C72.5743 56.8102 77.1999 52.1755 77.1999 46.4583C77.1999 40.7411 72.5743 36.1064 66.8683 36.1064C61.1623 36.1064 56.5366 40.7411 56.5366 46.4583C56.5366 52.1755 61.1623 56.8102 66.8683 56.8102Z" fill="url(#paint2_linear)"/>
<path d="M89.5401 131.861C87.243 126.195 84.2934 125.218 82.3654 125.303V124.385H52.2315V125.303C50.3036 125.218 47.354 126.195 45.0568 131.861C41.326 141.063 47.3527 156.878 47.3527 156.878C47.3527 156.878 44.1319 134.821 54.8273 134.676C55.7536 135.886 56.8902 136.92 58.1826 137.726V143.658H75.4548V138.266C77.1432 137.408 78.6178 136.181 79.7696 134.676C90.4651 134.821 87.2443 156.878 87.2443 156.878C87.2443 156.878 93.271 141.063 89.5401 131.861Z" fill="url(#paint3_linear)"/>
<path d="M66.8683 54.5101C71.3063 54.5101 74.904 50.9054 74.904 46.4587C74.904 42.012 71.3063 38.4072 66.8683 38.4072C62.4303 38.4072 58.8326 42.012 58.8326 46.4587C58.8326 50.9054 62.4303 54.5101 66.8683 54.5101Z" fill="url(#paint4_linear)"/>
<path d="M203.08 48.4658H202.6C202.634 53.6719 204.721 58.6533 208.405 62.3245C212.09 65.9956 217.073 68.059 222.269 68.0649V67.5842C217.2 67.5787 212.338 65.5661 208.744 61.985C205.15 58.4038 203.114 53.5445 203.08 48.4658Z" fill="#3A4554"/>
<path d="M194.204 48.4658H193.724C193.76 56.03 196.783 63.2723 202.131 68.6108C207.48 73.9494 214.719 76.9504 222.269 76.9583V76.4775C214.846 76.4692 207.729 73.5187 202.471 68.2704C197.213 63.0221 194.241 55.9023 194.204 48.4658Z" fill="#3A4554"/>
<path d="M185.085 48.4658H184.606C184.666 69.2234 201.537 86.092 222.269 86.092V85.6113C201.801 85.6113 185.145 68.959 185.085 48.4658Z" fill="#3A4554"/>
<path d="M132.855 113.142L131.901 121.765L119.714 121.976L121.185 111.66L132.855 113.142Z" fill="#FFB7B7"/>
<path d="M138.345 132.322C138.161 132.1 138.027 131.841 137.953 131.562C137.879 131.283 137.868 130.991 137.919 130.707C137.97 130.423 138.082 130.154 138.248 129.918C138.414 129.682 138.63 129.486 138.88 129.343L138.314 124.867L140.945 123.859L141.655 130.191C141.867 130.628 141.912 131.127 141.781 131.595C141.651 132.063 141.353 132.467 140.945 132.729C140.537 132.992 140.047 133.096 139.568 133.021C139.089 132.945 138.654 132.697 138.345 132.322Z" fill="#FFB7B7"/>
<path d="M116.183 177.146H113.607L112.382 167.19L116.184 167.191L116.183 177.146Z" fill="#FFB7B7"/>
<path d="M116.84 176.303L111.767 176.303H111.767C110.909 176.303 110.087 176.645 109.481 177.252C108.875 177.859 108.534 178.683 108.534 179.542V179.648L116.84 179.648L116.84 176.303Z" fill="#2F2E41"/>
<path d="M145.599 177.146H143.024L141.798 167.19L145.6 167.191L145.599 177.146Z" fill="#FFB7B7"/>
<path d="M146.257 176.303L141.184 176.303H141.183C140.326 176.303 139.504 176.645 138.898 177.252C138.291 177.859 137.951 178.683 137.951 179.542V179.648L146.257 179.648L146.257 176.303Z" fill="#2F2E41"/>
<path d="M141.891 128.828L140.759 115.695L137.453 103.701C137.208 102.824 136.704 102.041 136.007 101.455C135.311 100.869 134.455 100.507 133.55 100.417L133.442 100.406L132.855 109.409L137.082 118.111L138.479 128.552L141.891 128.828Z" fill="#3A4554"/>
<path d="M132.094 116.748L133.829 119.877C133.829 119.877 140.596 126.731 141.117 137.32L147.399 173.36L141.577 173.216L129.788 139.438L121.45 153.77L117.281 172.496L110.668 171.271L113.615 149.521L119.294 129.283L119.869 118.263L132.094 116.748Z" fill="#2F2E41"/>
<path d="M126.081 96.0608C123.231 96.0608 120.92 93.7458 120.92 90.89C120.92 88.0343 123.231 85.7192 126.081 85.7192C128.931 85.7192 131.241 88.0343 131.241 90.89C131.241 93.7458 128.931 96.0608 126.081 96.0608Z" fill="#FFB7B7"/>
<path d="M146.451 102.634C145.492 100.758 145.165 98.6271 144.427 96.6529C143.689 94.6787 142.348 92.72 140.316 92.1759C139.163 91.8673 137.938 92.0557 136.753 91.9088C135.712 91.7796 134.591 91.2469 134.192 90.3202C134.272 89.4015 134.157 88.4763 133.856 87.6051C133.113 85.4901 131.341 83.8205 129.276 82.9574C127.598 82.2563 125.666 82.0583 123.953 82.6671C122.24 83.276 120.802 84.764 120.494 86.559C120.186 88.3541 121.173 90.3585 122.876 90.9961C124.099 91.4539 125.673 91.3014 126.471 92.336C127.28 93.3841 126.7 94.9115 125.966 96.0131L126.016 96.0642C128.415 96.0924 131.008 95.6279 132.66 93.8851C132.84 93.6948 133.005 93.4914 133.154 93.2766C133.205 93.3579 133.258 93.4373 133.315 93.5131C134.147 94.6201 135.449 95.2481 136.69 95.86C137.931 96.4718 139.219 97.1585 139.964 98.3259C141.311 100.436 140.427 103.277 141.197 105.659C141.54 106.72 142.201 107.649 143.09 108.319C143.979 108.989 145.053 109.368 146.165 109.404C147.277 109.441 148.374 109.132 149.304 108.521C150.235 107.91 150.955 107.026 151.365 105.99C149.269 106.165 147.41 104.511 146.451 102.634Z" fill="#2F2E41"/>
<path d="M113.405 132.15C113.343 131.868 113.344 131.576 113.408 131.295C113.471 131.013 113.595 130.749 113.772 130.521C113.948 130.292 114.172 130.106 114.428 129.974C114.684 129.842 114.966 129.768 115.254 129.756L116.819 125.526L119.616 125.852L117.323 131.795C117.31 132.28 117.119 132.744 116.787 133.098C116.455 133.453 116.004 133.672 115.522 133.716C115.039 133.76 114.556 133.625 114.166 133.336C113.776 133.048 113.505 132.626 113.405 132.15Z" fill="#FFB7B7"/>
<path d="M132.91 118.02L134.404 110.821L134.873 105.338C135.139 102.228 134.271 99.1267 132.431 96.6084L131.954 95.9551L123.916 98.8174L119.998 103.993C117.607 106.402 119.479 108.708 119.74 109.005L119.82 116.279L119.91 116.291L132.91 118.02Z" fill="#3A4554"/>
<path d="M118.11 130.644L124.087 116.844L124.956 104.201L125.131 101.544C125.174 100.886 124.961 100.238 124.536 99.7352C124.111 99.2325 123.508 98.9149 122.854 98.8495C122.199 98.7841 121.545 98.9759 121.03 99.3846C120.514 99.7933 120.177 100.387 120.09 101.04L118.208 115.134L114.969 129.194L118.11 130.644Z" fill="#3A4554"/>
</g>
<defs>
<linearGradient id="paint0_linear" x1="49.3696" y1="40.8913" x2="53.373" y2="71.51" gradientUnits="userSpaceOnUse">
<stop stop-color="#3A4554"/>
<stop offset="1" stop-color="#0B1118"/>
</linearGradient>
<linearGradient id="paint1_linear" x1="27.3023" y1="85.3448" x2="88.1934" y2="93.1253" gradientUnits="userSpaceOnUse">
<stop stop-color="#F4672A"/>
<stop offset="1" stop-color="#F8A47F"/>
</linearGradient>
<linearGradient id="paint2_linear" x1="58.8099" y1="41.4347" x2="76.0233" y2="52.0346" gradientUnits="userSpaceOnUse">
<stop stop-color="white"/>
<stop offset="0.847752" stop-color="#C8C8C8"/>
</linearGradient>
<linearGradient id="paint3_linear" x1="59.5751" y1="126.31" x2="82.7261" y2="147.724" gradientUnits="userSpaceOnUse">
<stop stop-color="#3A4554"/>
<stop offset="1" stop-color="#2C333B"/>
</linearGradient>
<linearGradient id="paint4_linear" x1="64.862" y1="41.0882" x2="69.6103" y2="53.7185" gradientUnits="userSpaceOnUse">
<stop stop-color="#3A4554"/>
<stop offset="1" stop-color="#232D39"/>
</linearGradient>
<clipPath id="clip0">
<rect width="222.139" height="180.031" fill="white" transform="translate(0.129135 0.162598)"/>
</clipPath>
</defs>
</svg>
