<svg width="500" height="500" viewBox="0 0 500 500" fill="none" xmlns="http://www.w3.org/2000/svg">
<path opacity="0.27" d="M325 69.47L362.18 56.53C364.889 64.3025 365.095 72.7285 362.77 80.6244C360.444 88.5202 355.703 95.489 349.213 100.552C342.723 105.615 334.811 108.518 326.586 108.852C318.362 109.187 310.239 106.937 303.359 102.418C296.48 97.8988 291.188 91.3381 288.229 83.6573C285.269 75.9765 284.79 67.5616 286.859 59.5947C288.928 51.6277 293.441 44.509 299.763 39.2385C306.086 33.9681 313.901 30.8107 322.11 30.21L325 69.47Z" fill="#F5F5F5"/>
<path opacity="0.27" d="M330.27 28.8201L331.12 59.3401L359.23 48.4701C359.23 48.4701 351.86 32.6401 330.27 28.8201Z" fill="#EBEBEB"/>
<path opacity="0.27" d="M63.3802 394.72V364.79C69.2729 364.79 75.0347 366.528 79.9438 369.788C84.8529 373.047 88.691 377.683 90.9773 383.114C93.2635 388.545 93.8962 394.53 92.7961 400.319C91.6961 406.108 88.9121 411.444 84.7931 415.658C80.6741 419.872 75.4031 422.777 69.6406 424.009C63.878 425.24 57.8801 424.744 52.3983 422.582C46.9165 420.42 42.1945 416.689 38.8239 411.855C35.4533 407.022 33.584 401.301 33.4502 395.41L63.3802 394.72Z" fill="#F5F5F5"/>
<path opacity="0.27" d="M56.0801 386.65L26.1401 387.33C26.1374 379.329 29.1676 371.625 34.6201 365.77C40.2074 360.189 47.7252 356.967 55.6201 356.77L56.0801 386.65Z" fill="#F5F5F5"/>
<path opacity="0.61" d="M440 411.94C443.598 410.25 447.643 409.76 451.54 410.54C453.64 410.88 455.82 411.54 457.25 413.08C458.68 414.62 458.94 417.43 457.25 418.78C456.195 419.489 454.926 419.811 453.66 419.69C450.61 419.69 447.22 419.12 444.78 420.95C443.39 422 442.47 423.74 440.78 424.26C439.947 424.452 439.074 424.367 438.293 424.019C437.512 423.671 436.865 423.078 436.45 422.33C435.649 420.789 435.473 418.998 435.96 417.33C436.172 416.181 436.647 415.096 437.348 414.161C438.049 413.226 438.957 412.466 440 411.94Z" fill="#EBEBEB"/>
<path opacity="0.61" d="M431.94 396.41C434.08 399.48 438.26 398.41 440.19 396.59C442.12 394.77 442.94 392.01 443.69 389.42C445.39 383.51 447.1 377.31 445.84 371.29C445.535 369.465 444.732 367.759 443.52 366.36C442.906 365.668 442.121 365.15 441.243 364.859C440.365 364.568 439.426 364.513 438.52 364.7C436.41 365.26 435.11 367.32 434.16 369.28C431.374 375.069 429.915 381.406 429.89 387.83C429.89 390.83 430.23 393.95 431.89 396.41" fill="#EBEBEB"/>
<path opacity="0.61" d="M426 400.81C427.101 399.369 427.835 397.683 428.138 395.895C428.441 394.108 428.305 392.273 427.74 390.55C426.563 387.104 424.459 384.049 421.66 381.72C418.48 378.895 414.782 376.715 410.77 375.3C409.215 374.675 407.544 374.392 405.87 374.47C405.038 374.53 404.232 374.792 403.523 375.233C402.814 375.674 402.223 376.28 401.8 377C400.65 379.19 401.75 381.84 402.94 384C405.036 387.814 407.426 391.459 410.09 394.9C412.24 397.66 414.69 400.39 417.96 401.63C421.23 402.87 424.62 402.74 426.35 400.47" fill="#EBEBEB"/>
<path opacity="0.61" d="M431.79 442.67C431.906 442.212 431.973 441.743 431.99 441.27C432.08 440.27 432.21 438.99 432.36 437.47C432.546 435.597 432.83 433.734 433.21 431.89C433.7 429.647 434.369 427.447 435.21 425.31C436.043 423.178 437.175 421.175 438.57 419.36C439.707 417.88 441.159 416.671 442.82 415.82C443.946 415.261 445.155 414.886 446.4 414.71C446.869 414.693 447.335 414.626 447.79 414.51C447.318 414.456 446.842 414.456 446.37 414.51C445.076 414.614 443.812 414.952 442.64 415.51C440.892 416.335 439.358 417.554 438.16 419.07C436.703 420.912 435.53 422.961 434.68 425.15C433.821 427.318 433.152 429.556 432.68 431.84C432.323 433.704 432.076 435.587 431.94 437.48C431.82 439.1 431.77 440.41 431.75 441.31C431.716 441.764 431.729 442.219 431.79 442.67V442.67Z" fill="#E0E0E0"/>
<path opacity="0.61" d="M432.05 439.74C432.08 439.528 432.08 439.312 432.05 439.1V437.25C432.05 435.64 432.05 433.32 432.13 430.45C432.27 424.72 432.76 418.55 433.72 409.85C434.62 401.67 435.83 392.14 437.11 385.95C437.39 384.55 437.66 383.28 437.92 382.17C438.18 381.06 438.38 380.1 438.59 379.32C438.8 378.54 438.91 378 439.02 377.53C439.081 377.322 439.118 377.107 439.13 376.89C439.034 377.081 438.96 377.282 438.91 377.49L438.37 379.27C438.13 380.03 437.89 380.99 437.61 382.09C437.33 383.19 437.01 384.46 436.71 385.87C435.146 393.179 433.971 400.566 433.19 408C432.19 416.72 431.8 424.66 431.76 430.41C431.76 433.28 431.76 435.61 431.86 437.21C431.91 437.96 431.95 438.57 431.98 439.06C431.978 439.289 432.001 439.517 432.05 439.74V439.74Z" fill="#E0E0E0"/>
<path opacity="0.61" d="M432.09 424.43C432.144 423.788 432.144 423.142 432.09 422.5C432.02 421.26 431.85 419.5 431.5 417.27C431.077 414.697 430.51 412.15 429.8 409.64C428.96 406.566 427.894 403.557 426.61 400.64C424.396 395.258 421.225 390.321 417.25 386.07C416.549 385.329 415.797 384.638 415 384C414.67 383.71 414.37 383.43 414.06 383.2L413.21 382.61C412.692 382.238 412.147 381.904 411.58 381.61C413.453 383.085 415.234 384.675 416.91 386.37C420.758 390.655 423.845 395.566 426.04 400.89C427.305 403.797 428.377 406.783 429.25 409.83C430.08 412.63 430.64 415.21 431.06 417.38C431.48 419.55 431.69 421.38 431.83 422.56C431.869 423.189 431.956 423.814 432.09 424.43V424.43Z" fill="#E0E0E0"/>
<path opacity="0.61" d="M417.29 451.44L418.83 472.46H445.83L447.36 451.44H417.29Z" fill="#E0E0E0"/>
<path opacity="0.61" d="M450.58 443.15H414.68V451.43H450.58V443.15Z" fill="#E0E0E0"/>
<path opacity="0.61" d="M414.68 471.65V473.95H416.37H449.99V471.65H414.68Z" fill="#EBEBEB"/>
<path opacity="0.61" d="M418.02 477.99L416.37 473.95H448.71L446.78 477.99H418.02Z" fill="#E0E0E0"/>
<path opacity="0.61" d="M446.86 458.31C446.86 458.31 446.86 458.38 446.74 458.5L446.33 459.04L444.76 461.04L444.69 461.13L444.62 461.04L440.76 455.69H441L437.2 461.08L437.08 461.25L436.94 461.09L432.43 455.72H432.69L432.44 456.03L428.44 461.09L428.3 461.26L428.18 461.08L424.37 455.69H424.59L419.91 461.04L419.82 461.13L419.76 461.02L418.29 458.56L417.91 457.9C417.864 457.828 417.827 457.751 417.8 457.67C417.8 457.67 417.86 457.73 417.96 457.88L418.37 458.51L419.91 460.93H419.77C420.97 459.52 422.53 457.68 424.38 455.52L424.5 455.38L424.6 455.53L428.44 460.89H428.18L432.18 455.82C432.26 455.71 432.35 455.61 432.43 455.51L432.56 455.35L432.69 455.5L437.19 460.88H436.94L440.78 455.52L440.89 455.37L441 455.52C442.52 457.7 443.82 459.52 444.78 460.93H444.65L446.28 458.93L446.72 458.42L446.86 458.31Z" fill="#F5F5F5"/>
<path opacity="0.61" d="M447.74 451.3C447.74 451.39 440.97 451.47 432.63 451.47C424.29 451.47 417.52 451.39 417.52 451.3C417.52 451.21 424.28 451.13 432.63 451.13C440.98 451.13 447.74 451.21 447.74 451.3Z" fill="#F5F5F5"/>
<path opacity="0.61" d="M449.1 474.18C449.1 474.27 441.75 474.35 432.68 474.35C423.61 474.35 416.26 474.27 416.26 474.18C416.26 474.09 423.61 474.01 432.68 474.01C441.75 474.01 449.1 474.09 449.1 474.18Z" fill="#F5F5F5"/>
<path opacity="0.27" d="M407.22 217.17C407.134 209.729 409.255 202.429 413.314 196.192C417.373 189.955 423.19 185.06 430.029 182.126C436.867 179.192 444.422 178.349 451.739 179.705C459.057 181.061 465.808 184.554 471.142 189.744C476.475 194.934 480.151 201.588 481.706 208.865C483.261 216.143 482.626 223.718 479.879 230.634C477.133 237.55 472.398 243.498 466.274 247.726C460.15 251.954 452.911 254.273 445.47 254.39C435.466 254.516 425.82 250.667 418.649 243.69C411.478 236.712 407.368 227.174 407.22 217.17V217.17ZM462.87 216.27C462.795 212.715 461.668 209.262 459.632 206.346C457.596 203.431 454.742 201.184 451.43 199.889C448.119 198.594 444.498 198.308 441.024 199.069C437.55 199.83 434.38 201.602 431.912 204.163C429.445 206.724 427.791 209.958 427.16 213.457C426.529 216.957 426.948 220.565 428.366 223.826C429.783 227.087 432.134 229.856 435.123 231.782C438.112 233.709 441.605 234.707 445.16 234.65C449.945 234.558 454.498 232.571 457.818 229.125C461.139 225.678 462.956 221.055 462.87 216.27V216.27Z" fill="#F5F5F5" fill-opacity="0.57"/>
<path d="M407.22 217.17C407.046 207.172 410.843 197.512 417.778 190.309C424.714 183.105 434.222 178.945 444.22 178.74L444.54 198.48C439.799 198.638 435.309 200.651 432.038 204.087C428.768 207.523 426.977 212.107 427.053 216.85C427.13 221.593 429.066 226.117 432.445 229.446C435.824 232.776 440.376 234.644 445.12 234.65L445.43 254.39C435.432 254.505 425.797 250.652 418.634 243.675C411.472 236.699 407.368 227.167 407.22 217.17Z" fill="#E0E0E0"/>
<g filter="url(#filter0_b)">
<path d="M440.88 175.7C446.604 175.559 452.298 176.562 457.629 178.651C462.96 180.74 467.82 183.872 471.924 187.865C476.027 191.857 479.293 196.628 481.528 201.899C483.763 207.17 484.923 212.835 484.94 218.56L461.94 218.93C461.75 207.26 452.87 199.93 441.26 200.11L440.88 175.7Z" fill="#F4672A" fill-opacity="0.44"/>
</g>
<path d="M53.1401 321.05L237.08 477.89H291.85L446.85 321.05C446.85 321.05 286.29 281.54 53.1401 321.05Z" fill="black" fill-opacity="0.09"/>
<g filter="url(#filter1_b)">
<path d="M53.1401 71.6101V321.61C53.1401 321.61 274.41 282.11 446.86 321.61V71.6101C312.4 94.3401 181.23 95.7601 53.1401 71.6101Z" fill="white" fill-opacity="0.13"/>
</g>
<path d="M53.1399 71.6101L60.4799 72.8701L69.4799 74.4301C73.0499 75.0401 77.1899 75.8201 81.8699 76.4301L97.5199 78.7701C98.9499 78.9801 100.42 79.2201 101.92 79.4101L106.53 79.9901L116.31 81.2101C119.7 81.6201 123.21 82.1101 126.85 82.5001L138.13 83.6401L150.13 84.8401L162.85 85.8401C167.21 86.1501 171.67 86.5701 176.25 86.8401L190.34 87.6001L197.62 87.9901C200.08 88.1101 202.56 88.1501 205.07 88.2401L220.44 88.7101C241.35 89.0401 263.92 89.1401 287.89 88.0801C335.89 86.3301 389.49 80.9401 446.82 71.3701H447.1V71.6501C447.1 148.5 447.1 232.98 447.1 321.65V321.97L446.78 321.91C428.5 317.78 410.2 314.61 392.04 312.11C373.88 309.61 355.84 307.89 338.04 306.67C329.13 306 320.28 305.67 311.49 305.21L298.36 304.78C294 304.62 289.66 304.61 285.36 304.51C268.06 304.27 251.05 304.34 234.36 304.84C217.67 305.34 201.36 306.08 185.36 307.08C169.36 308.08 153.84 309.39 138.68 310.85C123.52 312.31 108.8 313.97 94.5299 315.85C80.2599 317.73 66.4399 319.64 53.1599 321.91H52.9199V321.66C53.0499 168.83 53.1299 73.3501 53.1299 71.6601C53.1299 73.3301 53.2099 168.81 53.3299 321.66L53.0899 321.46C66.3899 319.18 80.1999 317.21 94.4699 315.36C108.74 313.51 123.47 311.86 138.64 310.36C153.81 308.86 169.37 307.62 185.33 306.58C201.29 305.54 217.64 304.8 234.33 304.32C251.02 303.84 268.03 303.74 285.33 303.98C289.66 304.07 294 304.09 298.33 304.24L311.46 304.68C320.25 305.1 329.11 305.46 338.02 306.13C355.84 307.35 373.9 309.03 392.07 311.56C410.24 314.09 428.56 317.24 446.86 321.38L446.54 321.63C446.54 232.98 446.54 148.5 446.54 71.6301L446.82 71.8701C389.47 81.4301 335.82 86.7901 287.82 88.5101C263.82 89.5601 241.26 89.4401 220.35 89.0901L204.97 88.6101C202.46 88.5201 199.97 88.4701 197.52 88.3501L190.23 87.9501L176.14 87.1801C171.56 86.9201 167.14 86.5001 162.74 86.1801L150.02 85.1801L138.02 83.9601L126.73 82.8001C123.09 82.4001 119.58 81.9101 116.2 81.5001L106.41 80.2601L101.8 79.6701C100.3 79.4701 98.7999 79.2301 97.3999 79.0201L81.8499 76.6201C77.1499 75.9601 73.0499 75.1701 69.4899 74.5501L60.4899 72.9401L53.1399 71.6101Z" fill="#FA8A5A"/>
<path d="M424 108.44C424 108.38 350.05 121.44 258 121.6C165.9 122.16 91.7801 109.6 91.8301 109.6C91.7701 109.24 165.88 121.68 258.01 121.13C350 121 424 108.08 424 108.44Z" fill="#E0E0E0"/>
<path d="M423 125.72C423 125.72 349.49 136.28 257.94 136.39C166.37 136.85 92.69 126.7 92.73 126.72C92.67 126.4 166.36 136.41 257.94 135.95C349.46 135.82 423 125.4 423 125.72Z" fill="#E0E0E0"/>
<path d="M422 143C422 143 348.91 151.08 257.9 151.18C166.9 151.54 93.6097 143.83 93.6597 143.81C93.5897 143.53 166.85 151.1 257.9 150.74C348.88 150.63 422 142.72 422 143Z" fill="#E0E0E0"/>
<path d="M420.94 160.28C420.94 160.34 348.28 165.89 257.81 165.97C167.31 166.23 94.4798 160.97 94.5298 160.9C94.4698 160.66 167.29 165.79 257.81 165.53C348.3 165.44 421 160 420.94 160.28Z" fill="#E0E0E0"/>
<path d="M419.94 177.56C419.94 177.67 347.71 180.7 257.77 180.76C167.83 180.82 95.4097 178.09 95.4497 178C95.4897 177.91 167.79 180.49 257.77 180.33C347.75 180.17 420 177.36 419.94 177.56Z" fill="#E0E0E0"/>
<path d="M418.93 194.84C418.93 194.99 347.13 195.51 257.73 195.55C168.33 195.59 96.3301 195.22 96.3701 195.08C96.4101 194.94 168.28 195.17 257.73 195.08C347.18 194.99 419 194.69 418.93 194.84Z" fill="#E0E0E0"/>
<path d="M417.93 212.13C417.93 212.31 346.56 210.32 257.69 210.34C168.82 210.36 97.2498 212.34 97.2998 212.17C97.3498 212 168.77 209.86 257.69 209.9C346.61 209.94 418 212 417.93 212.13Z" fill="#E0E0E0"/>
<path d="M416.92 229.41C416.92 229.64 345.98 225.12 257.65 225.13C169.32 225.14 98.1798 229.47 98.2198 229.25C98.1598 229.18 169.22 224.54 257.65 224.69C346 224.67 417 229.34 416.92 229.41Z" fill="#E0E0E0"/>
<path d="M415.92 246.69C415.92 246.96 345.4 239.93 257.6 239.92C169.77 239.68 99.0997 246.6 99.1397 246.34C99.0797 246.34 169.76 239.23 257.6 239.48C345.42 239.48 416 246.66 415.92 246.69Z" fill="#E0E0E0"/>
<path d="M414.91 264C414.91 264.31 344.83 254.76 257.56 254.73C170.27 254.39 100.02 263.73 100.06 263.44C100 263.44 170.25 253.94 257.56 254.29C310.16 254.299 362.709 257.542 414.91 264V264Z" fill="#E0E0E0"/>
<path d="M413.9 281.26C413.9 281.62 344.25 269.55 257.52 269.5C170.76 269.06 100.95 280.85 100.99 280.5C100.93 280.5 170.74 268.6 257.52 269.04C309.882 269.11 362.162 273.195 413.9 281.26V281.26Z" fill="#E0E0E0"/>
<mask id="path-35-outside-1" maskUnits="userSpaceOnUse" x="94.8398" y="109.19" width="326" height="148" fill="black">
<rect fill="white" x="94.8398" y="109.19" width="326" height="148"/>
<path d="M419.44 186.1L418.21 185.44C417.036 184.745 415.813 184.136 414.55 183.62C409.626 181.539 404.37 180.354 399.03 180.12C395.083 179.965 391.13 180.203 387.23 180.83C382.555 181.595 377.993 182.939 373.65 184.83C372.47 185.32 371.35 185.96 370.17 186.52C368.99 187.08 367.9 187.85 366.74 188.52C365.58 189.19 364.52 190.05 363.41 190.85C362.33 191.702 361.326 192.645 360.41 193.67C356.81 197.82 354.18 202.86 351.71 208.13C349.24 213.4 346.98 219.03 344.54 224.81C342.133 230.864 339.278 236.73 336 242.36C334.233 245.345 332.021 248.043 329.44 250.36C328.045 251.571 326.456 252.538 324.74 253.22C323.85 253.53 322.99 253.92 322.06 254.16C321.143 254.448 320.212 254.689 319.27 254.88C315.396 255.716 311.42 255.976 307.47 255.65C303.422 255.322 299.441 254.43 295.64 253C291.828 251.581 288.305 249.484 285.24 246.81C284.866 246.499 284.512 246.165 284.18 245.81L283.18 244.72C282.59 243.94 281.93 243.2 281.4 242.39C280.285 240.795 279.283 239.124 278.4 237.39C274.88 230.5 272.65 223.08 270.46 215.57C268.27 208.06 266.3 200.35 263.63 192.7C262.31 188.814 260.705 185.031 258.83 181.38C256.895 177.539 254.271 174.085 251.09 171.19C247.411 168.28 243.062 166.338 238.44 165.54L237.56 165.36L236.67 165.24L234.89 165C233.69 164.93 232.49 164.79 231.3 164.82C228.921 164.787 226.545 164.971 224.2 165.37C221.917 165.766 219.674 166.368 217.5 167.17C216.97 167.38 216.5 167.61 215.94 167.83L215.16 168.16L214.43 168.54L212.96 169.32L211.58 170.2C208.135 172.526 205.263 175.604 203.18 179.2C199.07 186.14 197.6 193.85 195.35 201.2C194.287 204.889 192.846 208.458 191.05 211.85C189.188 215.289 186.69 218.343 183.69 220.85C180.589 223.447 176.952 225.325 173.04 226.35C169.113 227.352 164.98 227.195 161.14 225.9C157.539 224.644 154.282 222.562 151.63 219.82C149.145 217.236 147.164 214.211 145.79 210.9C143.05 204.47 142.21 197.8 141.43 191.5C140.65 185.2 140.28 179.07 139.7 173.27C139.201 167.703 138.373 162.17 137.22 156.7C136.135 151.685 134.516 146.8 132.39 142.13C128.62 134.129 123.23 126.999 116.56 121.19C112.153 117.288 107.096 114.188 101.62 112.03C100.68 111.69 99.8598 111.36 99.1398 111.12L97.3198 110.62L95.8398 110.19L97.3198 110.57L99.1498 111.05C99.8698 111.28 100.7 111.6 101.65 111.94C107.146 114.076 112.224 117.163 116.65 121.06C123.381 126.875 128.83 134.027 132.65 142.06C134.798 146.74 136.435 151.638 137.53 156.67C138.703 162.148 139.548 167.691 140.06 173.27C140.65 179.08 141.06 185.17 141.82 191.48C142.58 197.79 143.46 204.42 146.18 210.77C147.54 214.031 149.493 217.012 151.94 219.56C154.546 222.262 157.748 224.317 161.29 225.56C165.038 226.832 169.076 226.985 172.91 226C176.747 224.992 180.313 223.144 183.35 220.59C186.313 218.11 188.774 215.086 190.6 211.68C192.384 208.311 193.812 204.765 194.86 201.1C197.1 193.81 198.56 186.1 202.71 179.04C204.819 175.369 207.736 172.226 211.24 169.85L212.64 168.96L214.14 168.16L214.89 167.77L215.68 167.43L217.27 166.76C221.751 165.115 226.497 164.308 231.27 164.38C232.49 164.38 233.71 164.49 234.92 164.56C235.53 164.63 236.13 164.72 236.74 164.8L237.64 164.93L238.54 165.11C243.257 165.918 247.694 167.903 251.44 170.88C254.672 173.806 257.333 177.305 259.29 181.2C261.17 184.868 262.781 188.668 264.11 192.57C266.78 200.25 268.77 207.95 270.93 215.47C273.09 222.99 275.34 230.38 278.83 237.22C279.715 238.931 280.717 240.578 281.83 242.15C282.36 242.96 283.01 243.69 283.59 244.45L284.59 245.52C284.902 245.874 285.236 246.208 285.59 246.52C288.608 249.146 292.073 251.209 295.82 252.61C299.58 254.038 303.522 254.93 307.53 255.26C311.433 255.579 315.361 255.323 319.19 254.5C322.89 253.66 326.53 252.44 329.19 250.09C331.743 247.791 333.931 245.117 335.68 242.16C338.962 236.564 341.824 230.731 344.24 224.71C346.69 218.95 348.96 213.33 351.44 208.04C353.92 202.75 356.58 197.71 360.23 193.52C361.148 192.484 362.151 191.527 363.23 190.66C364.35 189.854 365.47 189.074 366.59 188.32C367.76 187.65 368.88 186.93 370.05 186.32C371.22 185.71 372.37 185.12 373.56 184.63C377.93 182.736 382.518 181.392 387.22 180.63C391.141 180.01 395.114 179.786 399.08 179.96C404.434 180.214 409.699 181.434 414.62 183.56C415.878 184.088 417.095 184.71 418.26 185.42C419 185.85 419.44 186.1 419.44 186.1Z"/>
</mask>
<path d="M419.44 186.1L418.21 185.44C417.036 184.745 415.813 184.136 414.55 183.62C409.626 181.539 404.37 180.354 399.03 180.12C395.083 179.965 391.13 180.203 387.23 180.83C382.555 181.595 377.993 182.939 373.65 184.83C372.47 185.32 371.35 185.96 370.17 186.52C368.99 187.08 367.9 187.85 366.74 188.52C365.58 189.19 364.52 190.05 363.41 190.85C362.33 191.702 361.326 192.645 360.41 193.67C356.81 197.82 354.18 202.86 351.71 208.13C349.24 213.4 346.98 219.03 344.54 224.81C342.133 230.864 339.278 236.73 336 242.36C334.233 245.345 332.021 248.043 329.44 250.36C328.045 251.571 326.456 252.538 324.74 253.22C323.85 253.53 322.99 253.92 322.06 254.16C321.143 254.448 320.212 254.689 319.27 254.88C315.396 255.716 311.42 255.976 307.47 255.65C303.422 255.322 299.441 254.43 295.64 253C291.828 251.581 288.305 249.484 285.24 246.81C284.866 246.499 284.512 246.165 284.18 245.81L283.18 244.72C282.59 243.94 281.93 243.2 281.4 242.39C280.285 240.795 279.283 239.124 278.4 237.39C274.88 230.5 272.65 223.08 270.46 215.57C268.27 208.06 266.3 200.35 263.63 192.7C262.31 188.814 260.705 185.031 258.83 181.38C256.895 177.539 254.271 174.085 251.09 171.19C247.411 168.28 243.062 166.338 238.44 165.54L237.56 165.36L236.67 165.24L234.89 165C233.69 164.93 232.49 164.79 231.3 164.82C228.921 164.787 226.545 164.971 224.2 165.37C221.917 165.766 219.674 166.368 217.5 167.17C216.97 167.38 216.5 167.61 215.94 167.83L215.16 168.16L214.43 168.54L212.96 169.32L211.58 170.2C208.135 172.526 205.263 175.604 203.18 179.2C199.07 186.14 197.6 193.85 195.35 201.2C194.287 204.889 192.846 208.458 191.05 211.85C189.188 215.289 186.69 218.343 183.69 220.85C180.589 223.447 176.952 225.325 173.04 226.35C169.113 227.352 164.98 227.195 161.14 225.9C157.539 224.644 154.282 222.562 151.63 219.82C149.145 217.236 147.164 214.211 145.79 210.9C143.05 204.47 142.21 197.8 141.43 191.5C140.65 185.2 140.28 179.07 139.7 173.27C139.201 167.703 138.373 162.17 137.22 156.7C136.135 151.685 134.516 146.8 132.39 142.13C128.62 134.129 123.23 126.999 116.56 121.19C112.153 117.288 107.096 114.188 101.62 112.03C100.68 111.69 99.8598 111.36 99.1398 111.12L97.3198 110.62L95.8398 110.19L97.3198 110.57L99.1498 111.05C99.8698 111.28 100.7 111.6 101.65 111.94C107.146 114.076 112.224 117.163 116.65 121.06C123.381 126.875 128.83 134.027 132.65 142.06C134.798 146.74 136.435 151.638 137.53 156.67C138.703 162.148 139.548 167.691 140.06 173.27C140.65 179.08 141.06 185.17 141.82 191.48C142.58 197.79 143.46 204.42 146.18 210.77C147.54 214.031 149.493 217.012 151.94 219.56C154.546 222.262 157.748 224.317 161.29 225.56C165.038 226.832 169.076 226.985 172.91 226C176.747 224.992 180.313 223.144 183.35 220.59C186.313 218.11 188.774 215.086 190.6 211.68C192.384 208.311 193.812 204.765 194.86 201.1C197.1 193.81 198.56 186.1 202.71 179.04C204.819 175.369 207.736 172.226 211.24 169.85L212.64 168.96L214.14 168.16L214.89 167.77L215.68 167.43L217.27 166.76C221.751 165.115 226.497 164.308 231.27 164.38C232.49 164.38 233.71 164.49 234.92 164.56C235.53 164.63 236.13 164.72 236.74 164.8L237.64 164.93L238.54 165.11C243.257 165.918 247.694 167.903 251.44 170.88C254.672 173.806 257.333 177.305 259.29 181.2C261.17 184.868 262.781 188.668 264.11 192.57C266.78 200.25 268.77 207.95 270.93 215.47C273.09 222.99 275.34 230.38 278.83 237.22C279.715 238.931 280.717 240.578 281.83 242.15C282.36 242.96 283.01 243.69 283.59 244.45L284.59 245.52C284.902 245.874 285.236 246.208 285.59 246.52C288.608 249.146 292.073 251.209 295.82 252.61C299.58 254.038 303.522 254.93 307.53 255.26C311.433 255.579 315.361 255.323 319.19 254.5C322.89 253.66 326.53 252.44 329.19 250.09C331.743 247.791 333.931 245.117 335.68 242.16C338.962 236.564 341.824 230.731 344.24 224.71C346.69 218.95 348.96 213.33 351.44 208.04C353.92 202.75 356.58 197.71 360.23 193.52C361.148 192.484 362.151 191.527 363.23 190.66C364.35 189.854 365.47 189.074 366.59 188.32C367.76 187.65 368.88 186.93 370.05 186.32C371.22 185.71 372.37 185.12 373.56 184.63C377.93 182.736 382.518 181.392 387.22 180.63C391.141 180.01 395.114 179.786 399.08 179.96C404.434 180.214 409.699 181.434 414.62 183.56C415.878 184.088 417.095 184.71 418.26 185.42C419 185.85 419.44 186.1 419.44 186.1Z" fill="#F4672A"/>
<path d="M419.44 186.1L418.21 185.44C417.036 184.745 415.813 184.136 414.55 183.62C409.626 181.539 404.37 180.354 399.03 180.12C395.083 179.965 391.13 180.203 387.23 180.83C382.555 181.595 377.993 182.939 373.65 184.83C372.47 185.32 371.35 185.96 370.17 186.52C368.99 187.08 367.9 187.85 366.74 188.52C365.58 189.19 364.52 190.05 363.41 190.85C362.33 191.702 361.326 192.645 360.41 193.67C356.81 197.82 354.18 202.86 351.71 208.13C349.24 213.4 346.98 219.03 344.54 224.81C342.133 230.864 339.278 236.73 336 242.36C334.233 245.345 332.021 248.043 329.44 250.36C328.045 251.571 326.456 252.538 324.74 253.22C323.85 253.53 322.99 253.92 322.06 254.16C321.143 254.448 320.212 254.689 319.27 254.88C315.396 255.716 311.42 255.976 307.47 255.65C303.422 255.322 299.441 254.43 295.64 253C291.828 251.581 288.305 249.484 285.24 246.81C284.866 246.499 284.512 246.165 284.18 245.81L283.18 244.72C282.59 243.94 281.93 243.2 281.4 242.39C280.285 240.795 279.283 239.124 278.4 237.39C274.88 230.5 272.65 223.08 270.46 215.57C268.27 208.06 266.3 200.35 263.63 192.7C262.31 188.814 260.705 185.031 258.83 181.38C256.895 177.539 254.271 174.085 251.09 171.19C247.411 168.28 243.062 166.338 238.44 165.54L237.56 165.36L236.67 165.24L234.89 165C233.69 164.93 232.49 164.79 231.3 164.82C228.921 164.787 226.545 164.971 224.2 165.37C221.917 165.766 219.674 166.368 217.5 167.17C216.97 167.38 216.5 167.61 215.94 167.83L215.16 168.16L214.43 168.54L212.96 169.32L211.58 170.2C208.135 172.526 205.263 175.604 203.18 179.2C199.07 186.14 197.6 193.85 195.35 201.2C194.287 204.889 192.846 208.458 191.05 211.85C189.188 215.289 186.69 218.343 183.69 220.85C180.589 223.447 176.952 225.325 173.04 226.35C169.113 227.352 164.98 227.195 161.14 225.9C157.539 224.644 154.282 222.562 151.63 219.82C149.145 217.236 147.164 214.211 145.79 210.9C143.05 204.47 142.21 197.8 141.43 191.5C140.65 185.2 140.28 179.07 139.7 173.27C139.201 167.703 138.373 162.17 137.22 156.7C136.135 151.685 134.516 146.8 132.39 142.13C128.62 134.129 123.23 126.999 116.56 121.19C112.153 117.288 107.096 114.188 101.62 112.03C100.68 111.69 99.8598 111.36 99.1398 111.12L97.3198 110.62L95.8398 110.19L97.3198 110.57L99.1498 111.05C99.8698 111.28 100.7 111.6 101.65 111.94C107.146 114.076 112.224 117.163 116.65 121.06C123.381 126.875 128.83 134.027 132.65 142.06C134.798 146.74 136.435 151.638 137.53 156.67C138.703 162.148 139.548 167.691 140.06 173.27C140.65 179.08 141.06 185.17 141.82 191.48C142.58 197.79 143.46 204.42 146.18 210.77C147.54 214.031 149.493 217.012 151.94 219.56C154.546 222.262 157.748 224.317 161.29 225.56C165.038 226.832 169.076 226.985 172.91 226C176.747 224.992 180.313 223.144 183.35 220.59C186.313 218.11 188.774 215.086 190.6 211.68C192.384 208.311 193.812 204.765 194.86 201.1C197.1 193.81 198.56 186.1 202.71 179.04C204.819 175.369 207.736 172.226 211.24 169.85L212.64 168.96L214.14 168.16L214.89 167.77L215.68 167.43L217.27 166.76C221.751 165.115 226.497 164.308 231.27 164.38C232.49 164.38 233.71 164.49 234.92 164.56C235.53 164.63 236.13 164.72 236.74 164.8L237.64 164.93L238.54 165.11C243.257 165.918 247.694 167.903 251.44 170.88C254.672 173.806 257.333 177.305 259.29 181.2C261.17 184.868 262.781 188.668 264.11 192.57C266.78 200.25 268.77 207.95 270.93 215.47C273.09 222.99 275.34 230.38 278.83 237.22C279.715 238.931 280.717 240.578 281.83 242.15C282.36 242.96 283.01 243.69 283.59 244.45L284.59 245.52C284.902 245.874 285.236 246.208 285.59 246.52C288.608 249.146 292.073 251.209 295.82 252.61C299.58 254.038 303.522 254.93 307.53 255.26C311.433 255.579 315.361 255.323 319.19 254.5C322.89 253.66 326.53 252.44 329.19 250.09C331.743 247.791 333.931 245.117 335.68 242.16C338.962 236.564 341.824 230.731 344.24 224.71C346.69 218.95 348.96 213.33 351.44 208.04C353.92 202.75 356.58 197.71 360.23 193.52C361.148 192.484 362.151 191.527 363.23 190.66C364.35 189.854 365.47 189.074 366.59 188.32C367.76 187.65 368.88 186.93 370.05 186.32C371.22 185.71 372.37 185.12 373.56 184.63C377.93 182.736 382.518 181.392 387.22 180.63C391.141 180.01 395.114 179.786 399.08 179.96C404.434 180.214 409.699 181.434 414.62 183.56C415.878 184.088 417.095 184.71 418.26 185.42C419 185.85 419.44 186.1 419.44 186.1Z" stroke="#F4672A" stroke-width="2" mask="url(#path-35-outside-1)"/>
<g filter="url(#filter2_d)">
<path d="M311.08 257.52C311.061 258.049 310.937 258.569 310.715 259.049C310.493 259.53 310.179 259.962 309.789 260.32C309.399 260.678 308.942 260.955 308.445 261.136C307.947 261.316 307.418 261.396 306.89 261.37C305.811 261.334 304.789 260.877 304.042 260.098C303.295 259.319 302.881 258.279 302.89 257.2C302.908 256.67 303.031 256.149 303.252 255.668C303.473 255.186 303.787 254.753 304.177 254.394C304.567 254.034 305.024 253.756 305.523 253.575C306.021 253.395 306.55 253.315 307.08 253.34C308.162 253.371 309.188 253.828 309.937 254.61C310.685 255.392 311.096 256.438 311.08 257.52V257.52Z" fill="#FDFDFD"/>
</g>
<g filter="url(#filter3_d)">
<path d="M234.73 164.61C234.729 165.131 234.624 165.647 234.422 166.127C234.219 166.608 233.923 167.043 233.551 167.408C233.179 167.772 232.738 168.06 232.253 168.252C231.769 168.445 231.251 168.539 230.73 168.53C229.664 168.525 228.642 168.104 227.882 167.357C227.122 166.61 226.684 165.596 226.66 164.53C226.66 164.009 226.764 163.492 226.966 163.011C227.168 162.53 227.464 162.095 227.836 161.73C228.209 161.365 228.651 161.078 229.135 160.885C229.62 160.693 230.139 160.6 230.66 160.61C231.727 160.613 232.75 161.033 233.511 161.78C234.272 162.528 234.709 163.544 234.73 164.61Z" fill="white" fill-opacity="0.96" shape-rendering="crispEdges"/>
</g>
<g filter="url(#filter4_d)">
<path d="M401.48 177.58C401.379 178.812 400.825 179.962 399.926 180.81C399.027 181.658 397.845 182.142 396.61 182.17C396.032 182.209 395.452 182.125 394.908 181.924C394.364 181.724 393.868 181.411 393.453 181.006C393.038 180.602 392.713 180.114 392.499 179.576C392.285 179.037 392.186 178.459 392.21 177.88C392.313 176.652 392.866 175.505 393.763 174.66C394.66 173.815 395.838 173.33 397.07 173.3C397.651 173.251 398.235 173.326 398.784 173.522C399.332 173.718 399.833 174.029 400.251 174.435C400.669 174.841 400.995 175.331 401.207 175.874C401.419 176.417 401.512 176.998 401.48 177.58V177.58Z" fill="white" fill-opacity="0.96" shape-rendering="crispEdges"/>
</g>
<g filter="url(#filter5_d)">
<path d="M173.89 225.8C173.941 226.646 173.739 227.488 173.309 228.219C172.879 228.949 172.241 229.535 171.476 229.901C170.712 230.267 169.855 230.396 169.017 230.272C168.178 230.149 167.395 229.778 166.769 229.207C166.142 228.636 165.7 227.891 165.499 227.068C165.298 226.244 165.348 225.379 165.641 224.584C165.934 223.789 166.458 223.099 167.146 222.603C167.833 222.107 168.653 221.828 169.5 221.8C170.613 221.749 171.7 222.141 172.523 222.891C173.347 223.641 173.838 224.688 173.89 225.8V225.8Z" fill="white" fill-opacity="0.96" shape-rendering="crispEdges"/>
</g>
<path d="M80.74 108C79.5649 108.072 78.3857 107.971 77.24 107.7C76.0312 107.59 74.8434 107.314 73.71 106.88C74.8851 106.803 76.0652 106.904 77.21 107.18C78.4187 107.29 79.6066 107.566 80.74 108V108Z" fill="#FA8A5A"/>
<path d="M81.7298 125.38C80.5675 125.502 79.3933 125.441 78.2497 125.2C77.0514 125.129 75.8694 124.886 74.7397 124.48C75.9033 124.378 77.0756 124.445 78.2197 124.68C79.4157 124.756 80.5961 124.992 81.7298 125.38Z" fill="#FA8A5A"/>
<path d="M82.72 142.8C81.5691 142.946 80.4029 142.919 79.26 142.72C78.0731 142.689 76.8972 142.483 75.77 142.11C76.9215 141.97 78.0873 142.001 79.23 142.2C80.4159 142.234 81.591 142.436 82.72 142.8V142.8Z" fill="#FA8A5A"/>
<path d="M83.7 160.21C82.5604 160.39 81.3997 160.39 80.26 160.21C79.0857 160.216 77.9168 160.051 76.79 159.72C77.9297 159.541 79.0904 159.541 80.23 159.72C81.404 159.72 82.5721 159.885 83.7 160.21Z" fill="#FA8A5A"/>
<path d="M84.6898 177.63C83.5627 177.844 82.4099 177.888 81.2698 177.76C80.1074 177.804 78.9448 177.676 77.8198 177.38C78.9454 177.154 80.0996 177.107 81.2398 177.24C82.4029 177.196 83.5659 177.328 84.6898 177.63V177.63Z" fill="#FA8A5A"/>
<path d="M85.6801 195C84.5651 195.249 83.4196 195.333 82.2801 195.25C81.1292 195.332 79.9726 195.237 78.8501 194.97C79.9631 194.708 81.1107 194.623 82.2501 194.72C83.401 194.639 84.5575 194.734 85.6801 195Z" fill="#FA8A5A"/>
<path d="M86.6599 212.45C85.5573 212.737 84.4182 212.858 83.2799 212.81C82.1446 212.929 80.9977 212.871 79.8799 212.64C80.9781 212.348 82.1147 212.226 83.2499 212.28C84.3887 212.166 85.5381 212.224 86.6599 212.45V212.45Z" fill="#FA8A5A"/>
<path d="M87.6499 229.86C86.5593 230.181 85.4266 230.336 84.2899 230.32C83.1669 230.498 82.0229 230.498 80.8999 230.32C81.9884 229.988 83.1222 229.83 84.2599 229.85C85.3841 229.684 86.5268 229.687 87.6499 229.86V229.86Z" fill="#FA8A5A"/>
<path d="M88.6397 247.27C87.5609 247.625 86.4352 247.817 85.2997 247.84C84.1861 248.033 83.0494 248.053 81.9297 247.9C83.0055 247.532 84.1327 247.336 85.2697 247.32C86.3841 247.134 87.5203 247.117 88.6397 247.27V247.27Z" fill="#FA8A5A"/>
<path d="M89.62 264.68C88.5571 265.072 87.4412 265.301 86.31 265.36C85.2087 265.589 84.0787 265.646 82.96 265.53C84.0231 265.126 85.1437 264.893 86.28 264.84C87.3786 264.617 88.505 264.563 89.62 264.68V264.68Z" fill="#FA8A5A"/>
<path d="M90.6097 282.09C89.5533 282.51 88.4419 282.777 87.3097 282.88C86.2233 283.139 85.1042 283.233 83.9897 283.16C85.0375 282.722 86.1478 282.452 87.2797 282.36C88.3686 282.095 89.4925 282.004 90.6097 282.09V282.09Z" fill="#FA8A5A"/>
<g filter="url(#filter6_b)">
<path d="M289.52 118.64H223.78V138.71H228.61V146.9L237.28 138.71H289.52V118.64Z" fill="#B3B7BD" fill-opacity="0.84"/>
</g>
<path d="M289.52 118.64C289.52 118.64 289.52 118.75 289.52 118.97C289.52 119.19 289.52 119.55 289.52 119.97C289.52 120.88 289.52 122.2 289.52 123.9C289.52 127.37 289.57 132.4 289.61 138.7V138.86H289.45L237.21 138.95L237.38 138.88L228.72 147.07L228.28 147.49V138.7L228.54 138.96H223.45V138.7C223.45 131.7 223.45 124.97 223.45 118.63V118.38H223.7L270.93 118.5L284.58 118.57H288.2H289.13H289.44H289.1H288.1H284.42L270.72 118.64L223.66 118.75L223.91 118.5C223.91 124.84 223.91 131.58 223.91 138.57L223.65 138.31H228.74V146.76L228.3 146.57L236.97 138.38L237.04 138.31H237.15L289.39 138.4L289.22 138.57C289.22 132.31 289.29 127.32 289.31 123.86C289.31 122.15 289.31 120.86 289.31 119.86C289.31 119.42 289.31 119.08 289.31 118.86C289.372 118.78 289.443 118.706 289.52 118.64V118.64Z" fill="#FA8A5A"/>
<path d="M281.4 126.58C281.4 126.72 270.33 126.84 256.68 126.84C243.03 126.84 231.96 126.72 231.96 126.58C231.96 126.44 243.03 126.32 256.68 126.32C270.33 126.32 281.4 126.43 281.4 126.58Z" fill="#3A4554"/>
<path d="M281.4 132C281.4 132.14 270.33 132.26 256.68 132.26C243.03 132.26 232 132.13 232 132C232 131.87 243.07 131.74 256.72 131.74C270.37 131.74 281.4 131.85 281.4 132Z" fill="#3A4554"/>
<g filter="url(#filter7_b)">
<path d="M362.93 146.38V166.45H367.76H376.43H428.67V146.38H362.93Z" fill="#B3B7BD" fill-opacity="0.84"/>
</g>
<path d="M362.93 146.38H363.24H364.17H367.83L381.55 146.31L428.67 146.19H428.92V146.45C428.92 152.82 428.92 159.56 428.92 166.5C428.4 167.03 428.76 166.65 428.64 166.77H409.36H391.63L362.93 166.71H362.76V166.55C362.76 160.23 362.83 155.2 362.85 151.73C362.85 150.04 362.85 148.73 362.85 147.81V146.81C362.841 146.7 362.841 146.59 362.85 146.48C362.85 146.48 362.85 146.61 362.85 146.84V147.84C362.85 148.77 362.85 150.09 362.85 151.84C362.85 155.29 362.9 160.28 362.94 166.56L362.78 166.39L391.48 166.32H428.48C428.37 166.43 428.76 166.06 428.24 166.57V146.39L428.5 146.64L381.56 146.52L368 146.45H364.29H363.29C363.167 146.444 363.046 146.42 362.93 146.38V146.38Z" fill="#FA8A5A"/>
<path d="M420.55 154.32C420.55 154.46 409.48 154.58 395.83 154.58C382.18 154.58 371.11 154.46 371.11 154.32C371.11 154.18 382.18 154.06 395.83 154.06C409.48 154.06 420.55 154.18 420.55 154.32Z" fill="#3A4554"/>
<path d="M420.55 159.73C420.55 159.88 409.48 159.99 395.83 159.99C382.18 159.99 371.11 159.88 371.11 159.73C371.11 159.58 382.18 159.47 395.83 159.47C409.48 159.47 420.55 159.59 420.55 159.73Z" fill="#3A4554"/>
<path d="M470.29 478C470.29 478.15 371.7 478.26 250.11 478.26C128.52 478.26 29.9102 478.15 29.9102 478C29.9102 477.85 128.48 477.74 250.11 477.74C371.74 477.74 470.29 477.85 470.29 478Z" fill="#263238"/>
<path d="M148.75 424.06C149.48 421.51 151.05 419.06 153.48 417.99C155.91 416.92 158.95 417.51 161.54 418.44C164.13 419.37 166.68 420.63 169.44 420.79C172.2 420.95 175.29 419.64 176.11 417.01C176.93 414.38 175.38 411.9 173.51 410.11C171.534 408.213 169.112 406.845 166.467 406.131C163.822 405.418 161.04 405.382 158.378 406.028C155.716 406.674 153.26 407.98 151.236 409.826C149.213 411.672 147.687 413.998 146.8 416.59" fill="#FF8B59"/>
<g opacity="0.5">
<path opacity="0.5" d="M148.75 424.06C149.48 421.51 151.05 419.06 153.48 417.99C155.91 416.92 158.95 417.51 161.54 418.44C164.13 419.37 166.68 420.63 169.44 420.79C172.2 420.95 175.29 419.64 176.11 417.01C176.93 414.38 175.38 411.9 173.51 410.11C171.534 408.213 169.112 406.845 166.467 406.131C163.822 405.418 161.04 405.382 158.378 406.028C155.716 406.674 153.26 407.98 151.236 409.826C149.213 411.672 147.687 413.998 146.8 416.59" fill="black"/>
</g>
<g filter="url(#filter8_b)">
<path d="M127 435.17C123 431.34 123.14 424.66 125.14 419.47C127.14 414.28 131.53 410.27 136.43 407.63C141.219 405.1 146.518 403.688 151.93 403.499C157.342 403.311 162.727 404.35 167.68 406.54C165.254 406.646 162.891 407.346 160.798 408.579C158.706 409.811 156.948 411.539 155.68 413.61C153.47 417.29 152.99 421.76 151.17 425.61C149.119 429.991 145.468 433.42 140.967 435.193C136.466 436.965 131.457 436.946 126.97 435.14" fill="#FA8A5A" fill-opacity="0.69"/>
</g>
<g filter="url(#filter9_b)">
<path d="M125 412.13C120.52 406.86 119.9 398.39 120.55 391.5C121.2 384.61 122.77 377.68 121.66 370.85C121.01 366.8 119.43 362.94 118.89 358.85C118.35 354.76 119.09 350.19 122.23 347.56C125.85 344.56 131.55 345.24 135.32 348.06C139.09 350.88 141.32 355.32 142.88 359.75C146.41 369.48 147.72 380.27 144.88 390.22C142.04 400.17 135.3 409.07 125.4 412.09" fill="#FA8A5A" fill-opacity="0.69"/>
</g>
<path d="M122.93 455.43C122.915 455.23 122.915 455.03 122.93 454.83C122.93 454.43 122.93 453.83 122.93 453.08C122.99 451.57 123.13 449.38 123.46 446.69C123.85 443.538 124.414 440.41 125.15 437.32C126.07 433.531 127.5 429.885 129.4 426.48C131.316 423.072 133.67 419.928 136.4 417.13C138.607 414.837 141.055 412.789 143.7 411.02C144.82 410.25 145.89 409.66 146.82 409.11C147.75 408.56 148.61 408.2 149.29 407.87L150.9 407.19C151.083 407.106 151.27 407.033 151.46 406.97C151.291 407.086 151.11 407.183 150.92 407.26L149.35 408C148.68 408.35 147.86 408.78 146.92 409.29C145.98 409.8 144.92 410.46 143.85 411.24C141.241 413.024 138.825 415.075 136.64 417.36C133.966 420.159 131.655 423.284 129.76 426.66C125.67 433.86 124.56 441.42 123.76 446.72C123.39 449.4 123.21 451.58 123.12 453.09C123.12 453.82 123.04 454.4 123.02 454.83C123.003 455.032 122.973 455.232 122.93 455.43V455.43Z" fill="#263238"/>
<path d="M84.21 391.4C75.95 396.4 75.99 400.96 77.38 405.24C78.77 409.52 83.86 412.49 88.06 410.88C90.44 409.96 92.16 407.88 93.62 405.81C95.08 403.74 96.47 401.5 98.53 400C100.59 398.5 103.53 397.93 105.65 399.4" fill="#FA8A5A"/>
<g opacity="0.5">
<path opacity="0.5" d="M84.21 391.4C75.95 396.4 75.99 400.96 77.38 405.24C78.77 409.52 83.86 412.49 88.06 410.88C90.44 409.96 92.16 407.88 93.62 405.81C95.08 403.74 96.47 401.5 98.53 400C100.59 398.5 103.53 397.93 105.65 399.4" fill="black"/>
</g>
<g filter="url(#filter10_b)">
<path d="M78 396.89C80.16 393.89 85.5 393.02 88.88 394.5C92.26 395.98 94.73 398.94 96.95 401.88C99.17 404.82 101.33 407.94 104.4 409.99C107.47 412.04 111.75 412.77 114.8 410.69C115.773 409.964 116.587 409.046 117.192 407.994C117.797 406.941 118.181 405.776 118.32 404.57C118.584 402.156 118.414 399.714 117.82 397.36C117.08 393.89 115.88 390.27 113.1 388.07C110 385.62 105.7 385.51 101.75 385.65C97.22 385.81 92.63 386.16 88.38 387.74C84.13 389.32 79.8 392.74 78 396.89" fill="#FA8A5A" fill-opacity="0.69"/>
</g>
<path d="M116 448.83C115.992 448.767 115.992 448.703 116 448.64C116 448.5 116 448.33 116 448.11C116 447.61 116 446.93 115.92 446.06C115.92 444.24 115.79 441.67 115.69 438.51C115.59 435.35 115.44 431.51 115.2 427.32C114.96 423.13 114.63 418.48 113.98 413.67C113.702 411.327 113.237 409.009 112.59 406.74C111.931 404.645 111.077 402.616 110.04 400.68C109.118 398.923 108.044 397.25 106.83 395.68C105.768 394.311 104.597 393.031 103.33 391.85C101.481 390.153 99.3918 388.738 97.1299 387.65C96.7199 387.46 96.3699 387.28 96.0599 387.15L95.2499 386.84L94.7499 386.64C94.6399 386.64 94.5799 386.57 94.5899 386.56L94.76 386.61L95.2699 386.77L96.0999 387.05C96.4199 387.17 96.78 387.34 97.19 387.52C99.498 388.565 101.63 389.961 103.51 391.66C104.797 392.839 105.988 394.12 107.07 395.49C108.303 397.059 109.397 398.732 110.34 400.49C111.395 402.441 112.266 404.487 112.94 406.6C113.597 408.892 114.069 411.233 114.35 413.6C115 418.43 115.35 423.07 115.54 427.28C115.73 431.49 115.87 435.28 115.95 438.48C116.03 441.68 116.05 444.25 116.07 446.03V448.62C116.057 448.693 116.033 448.764 116 448.83V448.83Z" fill="#263238"/>
<path d="M119 452.56C118.601 451.402 118.294 450.215 118.08 449.01C117.494 445.71 117.36 442.346 117.68 439.01C118.172 434.078 119.218 429.217 120.8 424.52C122.48 419.19 124.8 413.52 126.73 407.37C128.61 401.627 129.785 395.677 130.23 389.65C130.592 384.729 130.669 379.79 130.46 374.86C130.31 370.65 130.07 367.24 129.93 364.86C129.86 363.7 129.8 362.79 129.76 362.15C129.76 361.85 129.76 361.62 129.76 361.44C129.747 361.36 129.747 361.279 129.76 361.2C129.764 361.28 129.764 361.36 129.76 361.44C129.76 361.62 129.76 361.85 129.83 362.14C129.83 362.78 129.96 363.69 130.06 364.85C130.25 367.2 130.52 370.6 130.71 374.85C130.96 379.792 130.909 384.744 130.56 389.68C130.339 392.595 129.958 395.496 129.42 398.37C128.82 401.451 128.035 404.493 127.07 407.48C125.07 413.63 122.81 419.32 121.07 424.62C119.52 429.303 118.49 434.142 118 439.05C117.664 442.358 117.758 445.696 118.28 448.98C118.49 450.14 118.68 451.04 118.84 451.63L119.01 452.32C119.013 452.4 119.01 452.48 119 452.56V452.56Z" fill="#263238"/>
<path d="M139.54 456.25L100.7 456.34L99.7998 448.87L139.53 448.77L139.54 456.25Z" fill="#4E5866"/>
<path d="M104.87 455.48L109.78 477.89L130.88 477.84L135.37 455.4L104.87 455.48Z" fill="#4E5866"/>
<path d="M139.54 456.25C139.54 456.35 131 456.43 120.47 456.42C109.94 456.41 101.4 456.33 101.4 456.23C101.4 456.13 109.94 456.05 120.47 456.05C131 456.05 139.54 456.14 139.54 456.25Z" fill="#455A64"/>
<path d="M132.9 467.33C131.844 466.543 130.695 465.888 129.48 465.38C128.152 464.862 126.744 464.581 125.32 464.55C123.571 464.564 121.838 464.885 120.2 465.5C118.44 466.11 116.78 466.81 115.2 467.2C113.771 467.511 112.296 467.559 110.85 467.34C109.877 467.204 108.934 466.907 108.06 466.46C107.82 466.338 107.593 466.194 107.38 466.03C107.233 465.923 107.163 465.863 107.17 465.85C107.17 465.85 107.5 466.04 108.17 466.33C109.051 466.716 109.984 466.969 110.94 467.08C112.355 467.253 113.79 467.179 115.18 466.86C116.73 466.47 118.38 465.76 120.18 465.15C121.851 464.52 123.624 464.201 125.41 464.21C126.875 464.257 128.319 464.572 129.67 465.14C130.575 465.514 131.427 466.008 132.2 466.61C132.415 466.769 132.619 466.943 132.81 467.13C132.85 467.25 132.91 467.32 132.9 467.33Z" fill="#263238"/>
<path d="M132.61 468.83C131.589 468.066 130.485 467.419 129.32 466.9C128.048 466.385 126.692 466.11 125.32 466.09C123.613 466.09 121.92 466.395 120.32 466.99C118.61 467.56 117.01 468.23 115.48 468.65C114.124 469.043 112.711 469.205 111.3 469.13C110.347 469.076 109.414 468.828 108.56 468.4C108.329 468.282 108.108 468.145 107.9 467.99C107.76 467.88 107.69 467.82 107.7 467.81C107.71 467.8 108.02 468 108.62 468.27C109.473 468.632 110.384 468.835 111.31 468.87C112.691 468.903 114.068 468.717 115.39 468.32C116.89 467.89 118.48 467.22 120.21 466.64C121.833 466.04 123.55 465.739 125.28 465.75C127.656 465.814 129.947 466.645 131.81 468.12C132.014 468.278 132.208 468.448 132.39 468.63C132.56 468.75 132.62 468.82 132.61 468.83Z" fill="white"/>
<path d="M133.29 465.84C132.196 465.026 131.016 464.335 129.77 463.78C128.415 463.204 126.97 462.866 125.5 462.78C123.699 462.745 121.908 463.064 120.23 463.72C118.529 464.394 116.789 464.965 115.02 465.43C113.534 465.685 112.016 465.685 110.53 465.43C109.526 465.28 108.551 464.977 107.64 464.53C107.395 464.403 107.161 464.256 106.94 464.09C106.78 463.98 106.71 463.92 106.72 463.91C106.73 463.9 107.06 464.11 107.72 464.4C108.638 464.785 109.603 465.044 110.59 465.17C112.045 465.382 113.525 465.352 114.97 465.08C116.718 464.591 118.44 464.013 120.13 463.35C121.852 462.679 123.693 462.362 125.54 462.42C128.085 462.604 130.519 463.532 132.54 465.09C132.756 465.255 132.963 465.432 133.16 465.62C133.211 465.688 133.255 465.762 133.29 465.84V465.84Z" fill="white"/>
<path d="M139.89 456.28C139.89 456.38 131.15 456.48 120.37 456.51C109.59 456.54 100.86 456.51 100.86 456.37C100.86 456.23 109.59 456.16 120.37 456.14C131.15 456.12 139.89 456.17 139.89 456.28Z" fill="#263238"/>
<path d="M286.01 445.79L287.38 477.98L304.76 477.59L303.46 445.34L286.01 445.79Z" fill="#FA8A5A"/>
<path d="M295.91 476.58C296.06 476.58 295.79 469.52 295.31 460.83C294.83 452.14 294.31 445.11 294.19 445.12C294.07 445.13 294.31 452.17 294.79 460.86C295.27 469.55 295.77 476.58 295.91 476.58Z" fill="#263238"/>
<path d="M287.29 475.76L304.67 475.32L304.76 477.59L287.38 477.98L287.29 475.76Z" fill="#263238"/>
<path d="M304.35 467.28C304.228 467.029 304.066 466.8 303.87 466.6C303.378 466.023 302.833 465.494 302.24 465.02C301.37 464.296 300.396 463.706 299.35 463.27C298.064 462.704 296.663 462.447 295.26 462.52C293.989 462.573 292.743 462.89 291.602 463.451C290.46 464.012 289.448 464.806 288.63 465.78C288.143 466.367 287.742 467.02 287.44 467.72C287.311 467.97 287.23 468.241 287.2 468.52C287.703 467.642 288.275 466.806 288.91 466.02C290.557 464.216 292.851 463.137 295.29 463.02C297.726 462.99 300.1 463.791 302.02 465.29C303.52 466.43 304.28 467.35 304.35 467.28Z" fill="#263238"/>
<g opacity="0.3">
<path opacity="0.3" d="M303.83 454.52L303.97 458.06L286.55 458.38L286.43 455.71L303.83 454.52Z" fill="black"/>
</g>
<path opacity="0.3" d="M286.43 458.8L286.69 461.66H304.12L304 458.8H286.43Z" fill="black"/>
<path d="M246 447.28L247.54 466.83C247.54 466.83 228.26 474.55 228.2 478.19L266.09 477L264.94 446.44L246 447.28Z" fill="#FA8A5A"/>
<path d="M258.93 464.76C259.303 464.857 259.628 465.088 259.842 465.409C260.056 465.73 260.144 466.118 260.09 466.5C260.008 466.876 259.785 467.206 259.467 467.421C259.148 467.637 258.759 467.723 258.38 467.66C257.985 467.558 257.642 467.314 257.417 466.974C257.192 466.634 257.1 466.223 257.16 465.82C257.288 465.437 257.56 465.119 257.918 464.933C258.276 464.746 258.693 464.706 259.08 464.82" fill="#E0E0E0"/>
<path d="M266.09 477L266 474.56L229.2 476.48C228.882 476.704 228.612 476.989 228.406 477.318C228.2 477.648 228.062 478.016 228 478.4L266.09 477Z" fill="#263238"/>
<path d="M247.16 467C247.16 467.19 248.16 467.23 249.06 467.79C249.96 468.35 250.53 469.12 250.69 469.04C250.85 468.96 250.54 467.89 249.38 467.23C248.22 466.57 247.11 466.8 247.16 467Z" fill="#263238"/>
<path d="M243.21 468.8C243.21 468.99 244 469.27 244.67 470.03C245.34 470.79 245.56 471.62 245.74 471.61C245.92 471.6 246 470.53 245.15 469.61C244.3 468.69 243.21 468.62 243.21 468.8Z" fill="#263238"/>
<path d="M241.14 473.71C241.31 473.71 241.53 472.79 241.01 471.79C240.49 470.79 239.59 470.42 239.52 470.58C239.45 470.74 240.01 471.26 240.43 472.09C240.85 472.92 241 473.7 241.14 473.71Z" fill="#263238"/>
<path d="M247.3 462.44C247.39 462.61 248.24 462.32 249.3 462.34C250.36 462.36 251.19 462.67 251.3 462.5C251.41 462.33 250.57 461.71 249.3 461.69C248.03 461.67 247.21 462.3 247.3 462.44Z" fill="#263238"/>
<path d="M246.44 458.25C247.076 458.401 247.741 458.37 248.36 458.16C249.053 458.011 249.725 457.776 250.36 457.46C250.731 457.27 251.092 457.06 251.44 456.83C251.649 456.698 251.837 456.536 252 456.35C252.109 456.206 252.167 456.03 252.167 455.85C252.167 455.67 252.109 455.494 252 455.35C251.899 455.226 251.77 455.126 251.625 455.058C251.479 454.991 251.32 454.957 251.16 454.96C250.919 454.972 250.68 455.015 250.45 455.09C250.043 455.205 249.648 455.359 249.27 455.55C248.636 455.872 248.056 456.29 247.55 456.79C246.7 457.65 246.43 458.36 246.49 458.39C246.55 458.42 246.99 457.85 247.86 457.13C248.373 456.729 248.934 456.393 249.53 456.13C249.882 455.974 250.247 455.846 250.62 455.75C251.02 455.62 251.36 455.61 251.47 455.75C251.58 455.89 251.47 455.85 251.47 455.97C251.351 456.106 251.213 456.224 251.06 456.32C250.199 456.928 249.252 457.403 248.25 457.73C247.635 457.86 247.03 458.034 246.44 458.25V458.25Z" fill="#263238"/>
<path d="M246.7 458.51C247.036 457.947 247.183 457.292 247.12 456.64C247.128 455.928 247.01 455.22 246.77 454.55C246.634 454.151 246.452 453.769 246.23 453.41C246.119 453.16 245.944 452.944 245.723 452.782C245.502 452.621 245.242 452.52 244.97 452.49C244.799 452.501 244.635 452.561 244.497 452.661C244.359 452.762 244.253 452.901 244.19 453.06C244.105 453.289 244.048 453.527 244.02 453.77C243.974 454.201 243.994 454.636 244.08 455.06C244.223 455.772 244.539 456.439 245 457C245.79 458 246.58 458.15 246.6 458.08C246.62 458.01 245.99 457.65 245.37 456.73C245.017 456.193 244.785 455.586 244.69 454.95C244.64 454.582 244.64 454.208 244.69 453.84C244.69 453.43 244.87 453.1 245.02 453.13C245.17 453.16 245.55 453.41 245.72 453.73C245.92 454.049 246.094 454.383 246.24 454.73C246.481 455.338 246.632 455.978 246.69 456.63C246.76 457.78 246.59 458.49 246.7 458.51Z" fill="#263238"/>
<g opacity="0.3">
<path opacity="0.3" d="M265.43 458.16L265.55 462.5L247.21 463.15L247.07 459.21L265.43 458.16Z" fill="black"/>
</g>
<path d="M261.7 196.69L283.98 196.41L281.5 177.41C281.5 177.41 283.02 177.08 283.12 168.83C283.22 160.58 283.6 146.55 283.6 146.55C278.908 144.53 273.761 143.801 268.693 144.437C263.624 145.074 258.817 147.053 254.77 150.17L253.55 151.11L261.7 196.69Z" fill="#FFBE9D"/>
<path d="M256.13 161.29C255.99 161.22 250.46 159.61 250.64 165.29C250.82 170.97 256.45 169.59 256.46 169.43C256.47 169.27 256.13 161.29 256.13 161.29Z" fill="#FFBE9D"/>
<path d="M282.64 160.11C282.78 160.05 287.82 158.69 287.64 164.33C287.46 169.97 281.83 168.63 281.82 168.47C281.81 168.31 282.64 160.11 282.64 160.11Z" fill="#FFBE9D"/>
<path d="M254.3 160.66C255.15 165.38 254.98 167.87 255.76 171.03C257 176.03 259.48 179.86 263.98 182.36C268.48 184.86 274.58 184.81 278.45 181.36C281.13 179 283.03 176.36 283.45 172.79C283.87 169.22 284.25 162.95 284.27 159.37C284.32 152.93 284.75 146.77 284.75 146.77L266.34 143.44L255.86 149.67L254.3 160.66Z" fill="#263238"/>
<path d="M273.29 185.21C272.263 185.6 271.149 185.697 270.07 185.49C268.968 185.447 267.898 185.101 266.98 184.49C267.04 184.35 268.4 184.78 270.13 184.96C271.86 185.14 273.27 185.06 273.29 185.21Z" fill="#263238"/>
<path d="M255.19 168.7C254.65 163.85 254.3 158.31 253.55 153.2C253.26 151.28 252.55 148.51 252.75 146.58C252.805 144.632 253.215 142.711 253.96 140.91C254.502 139.813 255.288 138.854 256.258 138.108C257.228 137.362 258.356 136.849 259.556 136.607C260.755 136.366 261.995 136.403 263.178 136.715C264.361 137.028 265.456 137.608 266.38 138.41C267.061 137.41 268.028 136.638 269.154 136.197C270.281 135.756 271.514 135.666 272.693 135.939C273.872 136.211 274.94 136.834 275.759 137.724C276.578 138.615 277.108 139.732 277.28 140.93C277.941 140.3 278.79 139.905 279.697 139.807C280.605 139.708 281.519 139.912 282.299 140.386C283.079 140.859 283.681 141.577 284.012 142.427C284.343 143.278 284.385 144.214 284.13 145.09C284.794 145.201 285.42 145.475 285.952 145.888C286.484 146.301 286.904 146.84 287.176 147.456C287.448 148.071 287.562 148.745 287.509 149.416C287.455 150.087 287.236 150.735 286.87 151.3C286.01 152.61 284.48 153.3 283.54 154.59C283.007 155.321 282.697 156.189 282.645 157.092C282.594 157.995 282.804 158.894 283.25 159.68" fill="#263238"/>
<path d="M280.76 151.18C280.734 151.369 280.665 151.55 280.56 151.71C280.294 152.185 279.929 152.598 279.49 152.92C278.795 153.428 277.951 153.692 277.09 153.67C276.53 153.656 275.978 153.526 275.471 153.289C274.963 153.051 274.51 152.711 274.14 152.29L274.53 152.18C274.394 152.822 274.097 153.419 273.667 153.914C273.236 154.409 272.687 154.786 272.07 155.01C271.389 155.274 270.654 155.365 269.929 155.275C269.205 155.184 268.514 154.914 267.92 154.49C266.838 153.741 266.019 152.671 265.58 151.43H266.03C265.566 152.114 264.946 152.678 264.221 153.074C263.496 153.471 262.686 153.689 261.86 153.71C261.208 153.724 260.561 153.605 259.957 153.359C259.353 153.113 258.806 152.746 258.35 152.28C257.746 151.683 257.308 150.938 257.08 150.12C256.979 149.835 256.942 149.531 256.97 149.23C256.97 149.23 257.05 149.54 257.25 150.07C257.526 150.832 257.978 151.517 258.57 152.07C259.006 152.482 259.52 152.803 260.081 153.014C260.643 153.225 261.241 153.322 261.84 153.3C262.59 153.266 263.323 153.057 263.977 152.689C264.632 152.32 265.191 151.804 265.61 151.18L265.88 150.75L266.05 151.23C266.458 152.364 267.21 153.343 268.2 154.03C268.729 154.405 269.342 154.645 269.985 154.73C270.627 154.816 271.281 154.744 271.89 154.52C272.432 154.33 272.917 154.007 273.301 153.581C273.686 153.154 273.957 152.638 274.09 152.08L274.17 151.61L274.48 151.97C274.809 152.353 275.211 152.666 275.663 152.891C276.114 153.116 276.606 153.248 277.11 153.28C277.9 153.323 278.682 153.109 279.34 152.67C279.909 152.274 280.392 151.767 280.76 151.18V151.18Z" fill="#455A64"/>
<path d="M280.73 148.94C280.622 148.207 280.352 147.506 279.94 146.89C279.475 146.238 278.789 145.776 278.01 145.59C277.531 145.477 277.033 145.466 276.549 145.557C276.065 145.648 275.605 145.84 275.2 146.12L274.75 146.45L274.8 145.89C274.84 145.343 274.775 144.793 274.61 144.27C274.43 143.701 274.136 143.174 273.746 142.722C273.355 142.269 272.877 141.901 272.34 141.64C271.442 141.225 270.428 141.133 269.47 141.38C268.582 141.644 267.764 142.105 267.08 142.73C267.185 142.492 267.342 142.28 267.54 142.11C268.055 141.603 268.687 141.232 269.38 141.03C270.42 140.711 271.54 140.771 272.54 141.2C273.144 141.484 273.682 141.888 274.123 142.389C274.563 142.889 274.896 143.475 275.1 144.11C275.289 144.701 275.357 145.323 275.3 145.94L274.9 145.71C275.364 145.392 275.891 145.178 276.445 145.083C276.999 144.988 277.567 145.014 278.11 145.16C278.979 145.391 279.729 145.941 280.21 146.7C280.534 147.187 280.73 147.748 280.78 148.33C280.818 148.534 280.801 148.745 280.73 148.94V148.94Z" fill="#455A64"/>
<path d="M269 149.11C268.93 149.11 269 148.79 269 148.33C268.948 147.738 268.752 147.169 268.43 146.67C268.102 146.151 267.744 145.65 267.36 145.17C267.08 144.88 266.81 145.08 266.77 145.05C266.73 145.02 266.77 144.93 266.9 144.83C267.003 144.763 267.123 144.727 267.245 144.727C267.368 144.727 267.488 144.763 267.59 144.83C267.825 145.021 268.036 145.24 268.22 145.48C268.461 145.751 268.679 146.042 268.87 146.35C269.248 146.927 269.424 147.612 269.37 148.3C269.27 148.88 269 149.14 269 149.11Z" fill="#455A64"/>
<path d="M258.07 142C258.01 142 258.07 141.56 258.41 141C258.624 140.65 258.91 140.35 259.25 140.12C259.693 139.83 260.227 139.712 260.75 139.79C261.646 139.953 262.444 140.455 262.98 141.19C263.39 141.71 263.58 142.07 263.53 142.12C263.48 142.17 263.18 141.88 262.71 141.44C262.173 140.868 261.476 140.471 260.71 140.3C260.326 140.259 259.938 140.322 259.586 140.482C259.234 140.642 258.932 140.893 258.71 141.21C258.32 141.68 258.14 142 258.07 142Z" fill="#455A64"/>
<path d="M260.93 166C260.024 164.959 259.362 163.729 258.99 162.4C258.462 161.136 258.229 159.768 258.31 158.4C258.46 158.4 258.75 160.18 259.48 162.27C260.21 164.36 261.06 165.87 260.93 166Z" fill="#455A64"/>
<path d="M263.4 167.3C262.77 166.553 262.307 165.68 262.04 164.74C261.614 163.857 261.385 162.891 261.37 161.91C261.872 162.737 262.259 163.628 262.52 164.56C262.94 165.427 263.237 166.35 263.4 167.3V167.3Z" fill="#455A64"/>
<path d="M278.91 167.69C279.093 169.37 278.877 171.07 278.28 172.652C277.682 174.233 276.719 175.651 275.47 176.79C276.361 175.411 277.14 173.963 277.8 172.46C278.294 170.901 278.665 169.306 278.91 167.69V167.69Z" fill="#455A64"/>
<path d="M281.39 163.57C281.982 164.984 282.108 166.55 281.75 168.04C281.563 169.562 280.889 170.982 279.83 172.09C280.424 170.755 280.896 169.37 281.24 167.95C281.415 166.497 281.465 165.032 281.39 163.57V163.57Z" fill="#455A64"/>
<path d="M274.72 323L280.34 377.19L284.38 458.8H305.91L306.46 296.76L303.61 285.42L245.87 290.01L232.06 380.63L243.13 460.39H266.76L261.22 384.55L274.72 323Z" fill="#3A4554"/>
<path d="M274.72 323C273.45 324.502 272.047 325.888 270.53 327.14C269.13 328.52 267.607 329.768 265.98 330.87C268.651 327.989 271.576 325.355 274.72 323V323Z" fill="#455A64"/>
<path d="M274.66 321.91C274.563 319.576 274.6 317.239 274.77 314.91C274.777 312.591 274.911 310.274 275.17 307.97C275.447 310.293 275.494 312.638 275.31 314.97C275.316 317.299 275.098 319.623 274.66 321.91Z" fill="#455A64"/>
<path d="M281.78 301.68C281.897 301.672 282.014 301.672 282.13 301.68L283.19 301.61L287.28 301.41L301.88 300.8H302.12V301C302.12 305.56 302.12 310.71 302.12 316.16V316.64L301.95 316.7L292.46 320.51H292.37H292.28L283.88 317.59H283.75V317.45C283.14 312.72 282.63 308.78 282.26 305.96C282.1 304.64 281.97 303.58 281.87 302.8C281.815 302.439 281.782 302.075 281.77 301.71C281.8 301.812 281.823 301.915 281.84 302.02C281.84 302.26 281.92 302.54 281.98 302.88C282.11 303.67 282.28 304.74 282.49 306.08C282.91 308.86 283.49 312.74 284.19 317.39L284.04 317.21L292.46 320.07H292.29L301.77 316.25L301.61 316.49V316.2C301.61 310.75 301.61 305.6 301.61 301.04L301.86 301.28L287.42 301.64L283.27 301.72H282.15C282.026 301.718 281.902 301.705 281.78 301.68V301.68Z" fill="#455A64"/>
<path d="M250.69 302C250.793 301.986 250.897 301.986 251 302L252 301.95L255.7 301.84L269.01 301.53H269.26V301.78C269.12 306.28 268.95 311.47 268.77 316.99V317L268.65 317.07L267.11 318.07L259.3 323.16L259.17 323.25L259.03 323.17L250.23 317.81L250.12 317.74V317.61C250.29 312.89 250.43 308.95 250.53 306.13C250.58 304.81 250.63 303.76 250.66 302.97C250.69 302.18 250.73 301.88 250.74 301.9C250.754 302.003 250.754 302.107 250.74 302.21V303.06C250.74 303.86 250.74 304.93 250.74 306.27C250.74 309.06 250.64 312.95 250.57 317.62L250.46 317.43L259.29 322.72H259L266.8 317.61L268.34 316.61L268.22 316.82C268.42 311.3 268.61 306.11 268.77 301.62L269.01 301.86L255.84 301.93H251.08L250.69 302Z" fill="#455A64"/>
<path d="M299.84 326.5C298.866 326.561 297.888 326.528 296.92 326.4C295.13 326.27 292.65 326.03 289.92 325.67C287.19 325.31 284.74 324.92 282.97 324.59C282.002 324.463 281.048 324.246 280.12 323.94C281.093 323.946 282.064 324.039 283.02 324.22L290.02 325.14L297.02 326.03C297.972 326.101 298.916 326.258 299.84 326.5V326.5Z" fill="#455A64"/>
<path d="M299.34 386.9C299.34 386.9 299.26 387.22 298.83 387.59C298.208 388.091 297.429 388.356 296.63 388.34C295.448 388.298 294.315 387.862 293.41 387.1C292.344 386.192 291.363 385.188 290.48 384.1C288.843 382.19 287.384 380.135 286.12 377.96C285.554 377.086 285.097 376.146 284.76 375.16C285.367 375.995 285.928 376.863 286.44 377.76C287.787 379.858 289.273 381.862 290.89 383.76C291.749 384.812 292.696 385.788 293.72 386.68C294.532 387.403 295.557 387.842 296.64 387.93C297.37 387.972 298.094 387.783 298.71 387.39C299.14 387.13 299.31 386.88 299.34 386.9Z" fill="#455A64"/>
<path d="M256.81 388.81C256.775 389.061 256.675 389.299 256.52 389.5C256.143 390.082 255.632 390.566 255.03 390.91C254.136 391.433 253.116 391.703 252.08 391.69C250.812 391.647 249.58 391.256 248.52 390.56C246.663 389.27 245.183 387.51 244.23 385.46C243.778 384.658 243.422 383.805 243.17 382.92C243.695 383.67 244.163 384.459 244.57 385.28C245.571 387.207 247.022 388.864 248.8 390.11C249.785 390.748 250.918 391.124 252.09 391.2C253.048 391.235 253.999 391.021 254.85 390.58C255.625 390.141 256.294 389.536 256.81 388.81V388.81Z" fill="#455A64"/>
<path d="M258.18 380.63C257.659 381.073 257.059 381.412 256.41 381.63C253.322 382.921 249.874 383.063 246.69 382.03C246.021 381.864 245.392 381.565 244.84 381.15C249.191 382.7 253.972 382.503 258.18 380.6V380.63Z" fill="#455A64"/>
<path d="M257.74 192.74L259.1 188.05L283.59 187.05L285.96 191.24L308.21 198.93L303.3 249.75L301.75 270.65L303.31 275.65L301.06 280.13L302.44 288.38C302.44 288.38 287.76 292.53 280.12 293.16C272.48 293.79 258.91 292.23 258.91 292.23L245.91 289.97L246.77 277.78L245.77 275.5L246.86 273.2V258.2L239.45 229L239.82 198.75L257.74 192.74Z" fill="#FA8A5A"/>
<path d="M239.82 198.73C239.82 198.73 201.35 240.49 201.34 249C201.34 255.36 216.34 279.79 225.2 285.35L232.57 291.4L241.1 281.73L234 276.36C234 276.36 234.32 270.21 232.52 268.49C230.72 266.77 221.17 252.75 221.17 252.75C221.958 252.489 222.665 252.027 223.22 251.41C223.81 250.56 240.22 232.11 240.22 232.11L240.7 216.53L239.82 198.73Z" fill="#FA8A5A"/>
<path d="M221.21 253.71C220.649 253.963 220.058 254.141 219.45 254.24C218.02 254.506 216.617 254.905 215.26 255.43C213.979 256.12 212.753 256.905 211.59 257.78C211.122 258.187 210.596 258.524 210.03 258.78C210.415 258.301 210.866 257.881 211.37 257.53C212.481 256.552 213.699 255.704 215 255C216.394 254.456 217.853 254.096 219.34 253.93C219.948 253.76 220.579 253.686 221.21 253.71V253.71Z" fill="#263238"/>
<path d="M234 276.36C233.426 278.437 232.347 280.34 230.86 281.9C229.867 283.045 228.743 284.069 227.51 284.95C227.024 285.351 226.472 285.666 225.88 285.88C227.492 284.53 229.025 283.088 230.47 281.56C231.785 279.924 232.965 278.185 234 276.36V276.36Z" fill="#263238"/>
<path d="M234.74 279.94C234.67 279.94 235.13 279.37 236.11 279.48C236.4 279.508 236.678 279.605 236.921 279.764C237.165 279.922 237.367 280.137 237.51 280.39C237.662 280.701 237.741 281.043 237.74 281.39C237.735 281.585 237.685 281.776 237.595 281.95C237.505 282.123 237.377 282.273 237.22 282.39C236.942 282.61 236.61 282.752 236.258 282.801C235.907 282.85 235.549 282.805 235.22 282.67C234.962 282.538 234.74 282.344 234.576 282.104C234.412 281.865 234.31 281.589 234.28 281.3C234.19 280.3 234.75 279.87 234.77 279.93C234.622 280.35 234.577 280.799 234.64 281.24C234.686 281.456 234.782 281.659 234.919 281.832C235.056 282.005 235.231 282.145 235.43 282.24C235.679 282.331 235.947 282.355 236.208 282.312C236.469 282.268 236.715 282.157 236.92 281.99C237.02 281.916 237.102 281.822 237.161 281.713C237.22 281.604 237.254 281.483 237.26 281.36C237.265 281.099 237.214 280.84 237.11 280.6C237.011 280.406 236.869 280.236 236.696 280.103C236.524 279.97 236.323 279.877 236.11 279.83C235.652 279.752 235.181 279.79 234.74 279.94Z" fill="#263238"/>
<path d="M248.25 267.66C248.177 267.497 248.124 267.326 248.09 267.15L247.72 265.68L246.48 260.24C245.48 255.65 244.06 249.3 242.56 242.24C241.06 235.18 239.73 228.85 238.79 224.24C238.34 221.99 237.97 220.14 237.7 218.77C237.59 218.17 237.51 217.68 237.43 217.28C237.396 217.105 237.376 216.928 237.37 216.75C237.452 216.911 237.509 217.082 237.54 217.26C237.633 217.647 237.753 218.137 237.9 218.73C238.21 220.09 238.63 221.92 239.15 224.16C240.15 228.75 241.57 235.1 243.07 242.16C244.57 249.22 245.9 255.55 246.84 260.16C247.28 262.41 247.65 264.26 247.92 265.63C248.03 266.23 248.12 266.72 248.19 267.12C248.238 267.296 248.258 267.478 248.25 267.66V267.66Z" fill="#263238"/>
<path d="M297.27 272.45C296.736 272.656 296.188 272.823 295.63 272.95C294.57 273.25 293.01 273.62 291.08 274.02C280.993 276.117 270.654 276.73 260.39 275.84C258.39 275.66 256.84 275.48 255.75 275.31C255.18 275.251 254.614 275.147 254.06 275C254.632 274.99 255.203 275.024 255.77 275.1C256.87 275.21 258.45 275.34 260.42 275.47C265.531 275.797 270.657 275.817 275.77 275.53C280.88 275.216 285.966 274.592 291 273.66C292.94 273.3 294.5 272.99 295.57 272.75C296.127 272.599 296.696 272.499 297.27 272.45V272.45Z" fill="#263238"/>
<path d="M285.08 282C284.792 282.153 284.482 282.261 284.16 282.32C283.55 282.49 282.67 282.71 281.58 282.96C279.39 283.45 276.33 283.96 272.92 284.4C269.51 284.84 266.41 284.93 264.16 284.95C263.04 284.95 262.16 284.95 261.51 284.95C261.174 284.966 260.837 284.933 260.51 284.85C261.712 284.709 262.92 284.632 264.13 284.62C266.37 284.51 269.45 284.31 272.84 283.92C276.23 283.53 279.28 283.03 281.48 282.64C282.668 282.363 283.87 282.15 285.08 282V282Z" fill="#263238"/>
<path d="M293.16 219.71C293.184 219.896 293.184 220.084 293.16 220.27C293.16 220.69 293.1 221.22 293.07 221.87C293.07 222.22 293.02 222.61 292.99 223.02C292.96 223.43 292.87 223.9 292.8 224.39C292.658 225.5 292.457 226.601 292.2 227.69L291.74 229.59C291.58 230.25 291.34 230.92 291.12 231.59C290.651 233.078 290.103 234.54 289.48 235.97C288.018 239.235 286.226 242.341 284.13 245.24C281.975 248.096 279.536 250.726 276.85 253.09C275.666 254.106 274.431 255.06 273.15 255.95C272.54 256.36 271.98 256.79 271.39 257.14L269.71 258.14C268.66 258.8 267.61 259.24 266.71 259.69C266.26 259.9 265.86 260.11 265.47 260.27L264.38 260.69L262.88 261.24C262.714 261.323 262.535 261.377 262.35 261.4C262.507 261.298 262.675 261.214 262.85 261.15C263.23 260.97 263.72 260.76 264.31 260.5L265.36 260.05C265.75 259.87 266.15 259.65 266.58 259.42C267.581 258.938 268.555 258.404 269.5 257.82L271.16 256.82C271.73 256.46 272.28 256.02 272.88 255.61C274.09 254.8 275.25 253.78 276.51 252.74C281.867 248.051 286.137 242.249 289.02 235.74C289.649 234.329 290.207 232.887 290.69 231.42C290.91 230.73 291.17 230.08 291.34 229.42C291.51 228.76 291.66 228.15 291.82 227.55C292.16 226.36 292.3 225.25 292.49 224.28C292.57 223.8 292.67 223.35 292.73 222.93C292.79 222.51 292.81 222.14 292.85 221.79C292.923 221.123 292.983 220.593 293.03 220.2C293.055 220.032 293.099 219.868 293.16 219.71Z" fill="#263238"/>
<path d="M285.79 191.87C285.475 192.05 285.139 192.191 284.79 192.29C284.11 192.53 283.12 192.82 281.87 193.14C278.619 193.937 275.295 194.396 271.95 194.51C268.6 194.616 265.249 194.372 261.95 193.78C260.69 193.55 259.67 193.32 258.95 193.12C258.586 193.043 258.231 192.929 257.89 192.78C257.89 192.69 259.46 193.05 261.98 193.42C265.261 193.896 268.577 194.087 271.89 193.99C275.202 193.866 278.497 193.462 281.74 192.78C284.25 192.25 285.77 191.79 285.79 191.87Z" fill="#263238"/>
<g opacity="0.3">
<path opacity="0.3" d="M260.71 193.46C264.043 195.993 268.158 197.277 272.34 197.09C276.469 197.031 280.437 195.478 283.51 192.72C276.023 194.388 268.29 194.639 260.71 193.46" fill="black"/>
</g>
<g opacity="0.3">
<path opacity="0.3" d="M246.66 290.44C253.73 287.2 262.23 289.69 269.96 288.9C274.44 288.44 278.77 287.04 283.2 286.24C287.63 285.44 292.38 285.3 296.45 287.24C297.128 287.644 297.885 287.897 298.67 287.98C299.45 287.98 300.3 287.38 300.24 286.59C300.172 286.319 300.048 286.064 299.876 285.844C299.704 285.623 299.487 285.441 299.24 285.31C296.246 283.345 292.708 282.375 289.13 282.54C285.579 282.712 282.044 283.13 278.55 283.79C272.57 284.673 266.521 285.007 260.48 284.79C257.716 284.52 254.928 284.618 252.19 285.08C249.48 285.7 246.84 287.33 245.79 289.91" fill="black"/>
</g>
<path d="M308.21 198.94C308.21 198.94 343.63 238.84 343.61 247.34C343.61 253.69 329.5 278.18 321.26 283.77L314.38 289.85L306.48 280.22L313.14 274.83C313.14 274.83 312.86 268.68 314.55 266.96C316.24 265.24 325.17 251.17 325.17 251.17C324.427 250.909 323.77 250.449 323.27 249.84C322.73 249 304.51 230.62 304.51 230.62L305.42 217.4L308.21 198.94Z" fill="#FA8A5A"/>
<path d="M325.17 251.17C325.777 251.192 326.377 251.307 326.95 251.51C328.354 251.9 329.725 252.402 331.05 253.01C332.409 253.594 333.645 254.433 334.69 255.48C335.48 256.34 335.55 257.13 335.49 257.12C335.187 256.617 334.828 256.151 334.42 255.73C333.343 254.805 332.132 254.046 330.83 253.48C327.78 252.08 325.12 251.34 325.17 251.17Z" fill="#263238"/>
<path d="M313.38 274.88C314.304 276.643 315.343 278.343 316.49 279.97C317.773 281.494 319.159 282.927 320.64 284.26C318.816 283.32 317.25 281.946 316.08 280.26C314.771 278.703 313.847 276.86 313.38 274.88V274.88Z" fill="#263238"/>
<path d="M311.87 279C311.87 279.11 311.37 278.63 310.65 278.81C310.446 278.889 310.26 279.007 310.102 279.158C309.944 279.309 309.818 279.49 309.73 279.69C309.596 279.9 309.538 280.149 309.565 280.396C309.592 280.644 309.703 280.875 309.88 281.05C310.057 281.227 310.284 281.346 310.531 281.391C310.778 281.436 311.032 281.404 311.26 281.3C311.443 281.193 311.6 281.049 311.723 280.876C311.845 280.704 311.929 280.508 311.97 280.3C312.014 279.871 311.98 279.437 311.87 279.02C311.87 278.97 312.4 279.4 312.33 280.36C312.311 280.641 312.225 280.913 312.079 281.153C311.933 281.393 311.731 281.594 311.49 281.74C311.17 281.914 310.802 281.979 310.442 281.927C310.082 281.875 309.748 281.707 309.49 281.45C309.208 281.192 309.039 280.832 309.02 280.45C309.012 280.099 309.102 279.753 309.28 279.45C309.408 279.206 309.586 278.992 309.801 278.819C310.016 278.647 310.264 278.522 310.53 278.45C310.715 278.416 310.905 278.421 311.088 278.466C311.271 278.511 311.442 278.594 311.59 278.71C311.81 278.86 311.89 279 311.87 279Z" fill="#263238"/>
<path d="M314.38 289.85C314.38 289.85 310.94 294.43 307.76 292.02C307.76 292.02 303.31 291.08 301.02 288.72C298.73 286.36 298.37 284.92 296.75 284.81C294.723 284.473 292.719 284.009 290.75 283.42C290.528 283.363 290.322 283.253 290.152 283.099C289.982 282.945 289.851 282.752 289.771 282.537C289.692 282.322 289.665 282.09 289.695 281.863C289.724 281.635 289.808 281.418 289.94 281.23C290.12 281.007 290.359 280.841 290.63 280.75C292.08 280.26 298.53 280.87 298.53 280.87L300.41 280.98L300.74 278.22L302.93 276.46C302.93 276.46 304.32 277.31 304.25 278.46C304.513 278.426 304.78 278.446 305.035 278.516C305.291 278.587 305.53 278.708 305.738 278.871C305.947 279.035 306.12 279.239 306.25 279.47C306.379 279.702 306.46 279.957 306.49 280.22L314.38 289.85Z" fill="#FFBE9D"/>
<path d="M232.57 291.39C232.57 291.39 236.24 295.95 239.67 293.53C239.67 293.53 244.46 292.53 246.93 290.2C249.4 287.87 249.8 286.38 251.53 286.27C253.26 286.16 258.25 285.45 258.34 285.49C258.43 285.53 259.7 282.67 258.14 282.18C256.58 281.69 249.66 282.34 249.66 282.34L247.66 282.46L247.32 279.69L246.76 277.82C246.76 277.82 243.48 278.82 243.54 279.95C242.989 279.885 242.434 280.031 241.986 280.36C241.539 280.688 241.233 281.174 241.13 281.72L232.57 291.39Z" fill="#FFBE9D"/>
<g opacity="0.3">
<path opacity="0.3" d="M264.33 260.17C264.38 256.71 266.97 253.79 269.82 251.82C272.67 249.85 275.93 248.47 278.51 246.16C283.6 241.61 285.15 234.38 288.59 228.48C289.13 227.55 290.23 226.53 291.12 227.15C291.74 227.58 291.68 228.51 291.53 229.25C290.026 236.437 286.692 243.113 281.849 248.632C277.007 254.151 270.82 258.325 263.89 260.75" fill="black"/>
</g>
<path d="M306.83 208.11C306.97 208.11 305.95 222.11 304.55 239.4C303.15 256.69 301.89 270.67 301.75 270.66C301.61 270.65 302.63 256.66 304.03 239.36C305.43 222.06 306.69 208.09 306.83 208.11Z" fill="#263238"/>
<g opacity="0.3">
<path opacity="0.3" d="M308.93 235C309.257 233.65 309.233 232.238 308.86 230.9C308.04 226.753 307.083 222.64 305.99 218.56C305.99 220.7 305.48 223.88 305.42 226.41C305.42 227.9 305.14 231.25 305.14 231.25L308.93 235Z" fill="black"/>
</g>
<g opacity="0.3">
<path opacity="0.3" d="M325 251.11C327.444 250.642 329.94 250.508 332.42 250.71C333.044 250.739 333.661 250.86 334.25 251.07C334.842 251.29 335.326 251.731 335.6 252.3C335.721 252.622 335.776 252.964 335.763 253.308C335.749 253.652 335.666 253.989 335.52 254.3C335.424 254.611 335.244 254.89 335.001 255.107C334.758 255.324 334.46 255.47 334.14 255.53C333.47 255.53 332.92 255.03 332.42 254.53C331.572 253.774 330.583 253.193 329.51 252.82C327.97 252.28 326.19 252.13 325.02 251" fill="black"/>
</g>
<path d="M336.79 250.81C334.765 250.532 332.724 250.389 330.68 250.38C328.642 250.553 326.618 250.86 324.62 251.3C328.456 249.549 332.826 249.373 336.79 250.81V250.81Z" fill="#263238"/>
<g opacity="0.3">
<path opacity="0.3" d="M221.24 252.8C219.206 252.243 217.096 252.014 214.99 252.12C214.094 252.046 213.193 252.197 212.37 252.56C211.981 252.683 211.649 252.944 211.438 253.293C211.227 253.643 211.15 254.057 211.222 254.46C211.295 254.862 211.511 255.224 211.831 255.478C212.151 255.732 212.552 255.861 212.96 255.84C213.641 255.848 214.318 255.736 214.96 255.51L219.96 254.06C220.31 253.988 220.636 253.83 220.91 253.6C221.052 253.478 221.141 253.306 221.16 253.12C221.178 252.934 221.125 252.748 221.01 252.6" fill="black"/>
</g>
<g opacity="0.3">
<path opacity="0.3" d="M240 229.26C239.625 225.631 238.577 222.105 236.91 218.86C236.73 218.51 236.48 218.13 236.1 218.09C235.5 218.04 235.21 218.81 235.16 219.41C234.773 223.73 235.858 228.055 238.24 231.68C238.52 232.1 239 232.56 239.45 232.32C239.9 232.08 239.82 231.64 239.79 231.23C239.69 229.85 239.58 228.47 239.48 227.09" fill="black"/>
</g>
<path d="M265.49 193.84C265.396 193.566 265.349 193.279 265.35 192.99C265.239 191.615 265.364 190.232 265.72 188.9C265.773 188.618 265.868 188.345 266 188.09C266.06 188.09 265.71 189.36 265.57 190.95C265.43 192.54 265.55 193.83 265.49 193.84Z" fill="#FAFAFA"/>
<path d="M281.23 192.41C281.16 192.41 280.97 191.22 280.54 189.79C280.11 188.36 279.64 187.25 279.7 187.22C279.86 187.433 279.988 187.669 280.08 187.92C280.597 189.103 280.964 190.346 281.17 191.62C281.224 191.88 281.244 192.145 281.23 192.41V192.41Z" fill="#FAFAFA"/>
<path d="M260.34 275.9C260.34 275.9 260.34 275.61 260.24 275.08C260.14 274.55 260.08 273.7 259.98 272.72C259.75 270.62 259.43 267.72 258.98 264.06C258.18 256.74 257.03 246.64 255.68 235.49C254.33 224.34 253 214.26 252.02 206.97C251.53 203.36 251.14 200.42 250.85 198.33C250.72 197.33 250.62 196.57 250.54 195.98C250.46 195.39 250.45 195.16 250.45 195.16C250.45 195.16 250.5 195.44 250.58 195.98C250.66 196.52 250.79 197.34 250.93 198.32L252.17 206.95C253.17 214.24 254.52 224.32 255.88 235.47C257.24 246.62 258.36 256.72 259.13 264.04C259.5 267.66 259.79 270.61 260.01 272.71C260.1 273.71 260.17 274.48 260.23 275.07C260.29 275.66 260.34 275.9 260.34 275.9Z" fill="#FAFAFA"/>
<path d="M264.4 284.26C264.4 284.26 264.33 284.16 264.24 283.97C264.123 283.693 264.023 283.409 263.94 283.12C263.658 282.146 263.53 281.134 263.56 280.12C263.582 279.122 263.761 278.133 264.09 277.19C264.189 276.903 264.306 276.622 264.44 276.35C264.54 276.16 264.6 276.06 264.61 276.07C264.62 276.08 264.45 276.51 264.23 277.23C263.654 279.117 263.602 281.126 264.08 283.04C264.26 283.81 264.43 284.25 264.4 284.26Z" fill="#FAFAFA"/>
<path d="M261.73 292.09C261.494 291.825 261.302 291.525 261.16 291.2C260.385 289.653 260.04 287.926 260.16 286.2C260.167 285.859 260.228 285.522 260.34 285.2C260.34 285.2 260.34 285.61 260.34 286.25C260.309 287.934 260.65 289.604 261.34 291.14C261.56 291.73 261.75 292.08 261.73 292.09Z" fill="#FAFAFA"/>
<path d="M285.19 291.89C285.045 291.448 284.928 290.997 284.84 290.54C284.65 289.7 284.37 288.54 284.04 287.28C283.71 286.02 283.38 284.88 283.13 284.05C282.979 283.613 282.862 283.165 282.78 282.71C282.842 282.818 282.892 282.932 282.93 283.05C283.02 283.27 283.14 283.6 283.28 284.05C283.55 284.86 283.9 286 284.28 287.27C284.66 288.54 284.87 289.7 285.03 290.55C285.11 290.97 285.17 291.32 285.2 291.55C285.213 291.663 285.209 291.778 285.19 291.89Z" fill="#FAFAFA"/>
<path d="M291.69 273.46C291.853 273.775 291.967 274.112 292.03 274.46C292.219 275.31 292.279 276.182 292.21 277.05C292.134 277.918 291.932 278.77 291.61 279.58C291.482 279.916 291.314 280.234 291.11 280.53C291.565 279.409 291.865 278.232 292 277.03C292.067 276.182 292.03 275.329 291.89 274.49C291.78 273.86 291.66 273.47 291.69 273.46Z" fill="#FAFAFA"/>
<path d="M286.3 242.89C286.3 242.89 286.3 243 286.3 243.21C286.3 243.42 286.3 243.79 286.25 244.13C286.2 245.04 286.14 246.13 286.07 247.51C285.93 250.37 285.82 254.32 285.88 258.68C285.94 263.04 286.16 266.99 286.37 269.84C286.48 271.19 286.57 272.32 286.64 273.22C286.64 273.57 286.69 273.87 286.72 274.14C286.729 274.247 286.729 274.354 286.72 274.46C286.688 274.356 286.668 274.249 286.66 274.14L286.55 273.23C286.46 272.43 286.34 271.23 286.21 269.86C285.96 267.01 285.72 263.06 285.66 258.69C285.6 254.32 285.74 250.36 285.91 247.51C286 246.08 286.09 244.92 286.16 244.13C286.16 243.78 286.22 243.48 286.25 243.21C286.252 243.102 286.269 242.994 286.3 242.89V242.89Z" fill="#FAFAFA"/>
<path d="M289.52 192.27C289.58 192.27 289.22 202.47 288.72 215.05C288.22 227.63 287.72 237.82 287.72 237.82C287.72 237.82 288.02 227.62 288.52 215.04C289.02 202.46 289.46 192.27 289.52 192.27Z" fill="#FAFAFA"/>
<path d="M306.56 212.59C306.56 212.65 291.4 213.46 272.7 214.4C254 215.34 238.83 216.05 238.83 215.99C238.83 215.93 253.98 215.13 272.69 214.19C291.4 213.25 306.55 212.54 306.56 212.59Z" fill="#FAFAFA"/>
<path d="M278.26 250C278.154 250.041 278.043 250.068 277.93 250.08L276.93 250.26C276.1 250.41 274.93 250.61 273.4 250.83C270.4 251.27 266.26 251.83 261.66 252.1C257.06 252.37 252.88 252.5 249.86 252.48C248.35 252.48 247.13 252.48 246.28 252.41H245.28H244.94C245.053 252.402 245.167 252.402 245.28 252.41H249.83C252.83 252.41 257.02 252.29 261.62 251.97C266.22 251.65 270.36 251.17 273.35 250.76L276.89 250.26L277.89 250.12L278.26 250Z" fill="#FAFAFA"/>
<path d="M303 242.19C303 242.24 299.19 242.6 294.47 242.98C289.75 243.36 285.93 243.63 285.92 243.58C285.91 243.53 289.74 243.16 294.46 242.78C299.18 242.4 303 242.13 303 242.19Z" fill="#FAFAFA"/>
<path d="M303.67 275.14C303.67 275.14 300.59 276.06 295.51 277.14C288.89 278.552 282.181 279.508 275.43 280C268.678 280.46 261.902 280.46 255.15 280C249.97 279.63 246.79 279.14 246.79 279.14H247.37L249.04 279.31C250.48 279.47 252.57 279.64 255.16 279.81C261.908 280.23 268.675 280.21 275.42 279.75C282.16 279.275 288.861 278.357 295.48 277C298.02 276.48 300.07 276 301.48 275.65L303.1 275.26L303.67 275.14Z" fill="#FAFAFA"/>
<path d="M330.94 227.39C330.94 227.39 330.89 227.45 330.78 227.53L330.28 227.9C329.85 228.21 329.22 228.67 328.47 229.26C326.497 230.8 324.63 232.47 322.88 234.26C321.133 236.032 319.503 237.916 318 239.9C317.42 240.67 317 241.3 316.67 241.74L316.32 242.25L316.18 242.42C316.18 242.42 316.18 242.35 316.28 242.23L316.6 241.7C316.89 241.24 317.32 240.6 317.88 239.82C319.335 237.784 320.947 235.865 322.7 234.08C324.459 232.297 326.348 230.645 328.35 229.14C329.12 228.57 329.75 228.14 330.21 227.83L330.73 227.5L330.94 227.39Z" fill="#FAFAFA"/>
<path d="M333.14 250C333.046 249.899 332.96 249.792 332.88 249.68L332.16 248.74L329.55 245.26C327.33 242.32 324.23 238.26 320.7 233.93C317.17 229.6 313.89 225.69 311.48 222.93L308.63 219.64L307.85 218.74L307.59 218.42C307.59 218.42 307.7 218.52 307.88 218.71L308.69 219.58L311.59 222.83C314.03 225.59 317.33 229.45 320.86 233.83C324.39 238.21 327.48 242.24 329.67 245.2L332.23 248.72L332.91 249.72C333.07 249.89 333.14 250 333.14 250Z" fill="#FAFAFA"/>
<path d="M336.58 251C336.711 251.852 336.545 252.724 336.11 253.469C335.675 254.213 334.997 254.786 334.19 255.09C334.893 254.651 335.487 254.06 335.93 253.36C336.316 252.63 336.538 251.825 336.58 251Z" fill="#FAFAFA"/>
<path d="M313.59 276.1C313.625 276.012 313.668 275.929 313.72 275.85C313.85 275.65 313.99 275.42 314.14 275.17C314.58 274.49 315.14 273.66 315.72 272.69C317.07 270.61 318.97 267.75 321.11 264.63C323.25 261.51 325.24 258.71 326.7 256.7L328.45 254.33L328.93 253.7C328.985 253.623 329.045 253.549 329.11 253.48C329.11 253.48 329.11 253.57 328.97 253.72L328.51 254.38L326.82 256.78C325.33 258.93 323.41 261.69 321.28 264.78C319.15 267.87 317.28 270.65 315.85 272.78L314.21 275.22L313.76 275.88C313.71 275.958 313.653 276.032 313.59 276.1Z" fill="#FAFAFA"/>
<path d="M317.42 281.29C316.51 282.16 315.548 282.975 314.54 283.73C313.582 284.544 312.581 285.305 311.54 286.01C312.455 285.145 313.417 284.331 314.42 283.57C316 282.27 317.39 281.25 317.42 281.29Z" fill="#FAFAFA"/>
<path d="M331.22 272.87C330.99 272.801 330.766 272.714 330.55 272.61C329.941 272.369 329.349 272.085 328.78 271.76C326.886 270.719 325.159 269.397 323.66 267.84C322.158 266.283 320.898 264.51 319.92 262.58C319.619 261.997 319.355 261.396 319.13 260.78C319.031 260.562 318.957 260.334 318.91 260.1C319.023 260.311 319.123 260.528 319.21 260.75C319.38 261.18 319.67 261.75 320.05 262.51C321.053 264.408 322.319 266.155 323.81 267.7C325.288 269.233 326.971 270.556 328.81 271.63C329.53 272.04 330.12 272.35 330.54 272.54C330.776 272.629 331.004 272.739 331.22 272.87V272.87Z" fill="#FAFAFA"/>
<path d="M236.58 217.52L236.23 217.91L235.23 219.01L231.43 223.01L218.83 236.25L215.23 240.01C214.07 241.23 212.93 242.38 211.95 243.57C209.95 245.89 208.63 248.51 208.7 250.86C208.681 251.776 208.849 252.686 209.193 253.535C209.536 254.385 210.049 255.155 210.7 255.8C211.198 256.243 211.779 256.583 212.41 256.8L211.92 256.64C211.45 256.446 211.017 256.172 210.64 255.83C209.964 255.186 209.429 254.41 209.067 253.549C208.706 252.689 208.526 251.763 208.54 250.83C208.44 248.43 209.78 245.76 211.78 243.41C212.78 242.22 213.91 241.06 215.07 239.84L218.66 236.07L231.3 222.88C232.88 221.24 234.18 219.88 235.15 218.88L236.15 217.8C236.44 217.64 236.58 217.52 236.58 217.52Z" fill="#FAFAFA"/>
<path d="M234.14 239.19L234 239C233.91 238.81 233.8 238.61 233.69 238.39C233.43 237.86 233.03 237.09 232.53 236.15C229.922 231.244 226.721 226.676 223 222.55C222.29 221.76 221.7 221.13 221.28 220.71L220.81 220.21C220.75 220.152 220.697 220.089 220.65 220.02L220.84 220.18L221.34 220.65C221.77 221.06 222.34 221.65 223.11 222.45C225.008 224.491 226.769 226.655 228.38 228.93C229.981 231.207 231.428 233.589 232.71 236.06C233.2 237.01 233.57 237.79 233.81 238.34L234.09 238.97C234.117 239.04 234.134 239.115 234.14 239.19V239.19Z" fill="#FAFAFA"/>
<path d="M221.78 251.4L221.57 251.46L220.97 251.58C220.44 251.69 219.68 251.82 218.73 251.94C216.253 252.249 213.754 252.343 211.26 252.22C208.766 252.105 206.286 251.771 203.85 251.22C202.92 251 202.17 250.8 201.66 250.64L201.07 250.45C200.999 250.436 200.931 250.409 200.87 250.37H201.08L201.68 250.52C202.2 250.66 202.95 250.84 203.88 251.04C206.314 251.565 208.785 251.899 211.27 252.04C213.752 252.163 216.24 252.09 218.71 251.82C219.66 251.72 220.43 251.62 220.95 251.53L221.56 251.45C221.63 251.422 221.705 251.405 221.78 251.4Z" fill="#FAFAFA"/>
<path d="M228.53 264C228.342 264.139 228.145 264.266 227.94 264.38C227.55 264.6 226.99 264.95 226.32 265.38C224.549 266.532 222.876 267.83 221.32 269.26C219.78 270.696 218.359 272.255 217.07 273.92C216.58 274.56 216.19 275.09 215.94 275.46C215.814 275.659 215.67 275.847 215.51 276.02C215.618 275.81 215.738 275.606 215.87 275.41C216.11 275.03 216.48 274.49 216.96 273.83C218.215 272.127 219.628 270.547 221.18 269.11C222.723 267.674 224.397 266.385 226.18 265.26C226.87 264.83 227.44 264.5 227.84 264.26C228.06 264.149 228.292 264.062 228.53 264V264Z" fill="#FAFAFA"/>
<path d="M232.53 278.23C232.53 278.23 228.89 273 224.53 266.47C220.17 259.94 216.63 254.61 216.68 254.58C216.73 254.55 220.32 259.82 224.68 266.35C229.04 272.88 232.58 278.2 232.53 278.23Z" fill="#FAFAFA"/>
<path d="M234.71 288.07C233.738 287.438 232.803 286.75 231.91 286.01C230.974 285.327 230.082 284.586 229.24 283.79C230.211 284.425 231.145 285.113 232.04 285.85C232.976 286.533 233.868 287.274 234.71 288.07V288.07Z" fill="#FAFAFA"/>
<defs>
<filter id="filter0_b" x="435.88" y="170.687" width="54.06" height="53.2431" filterUnits="userSpaceOnUse" color-interpolation-filters="sRGB">
<feFlood flood-opacity="0" result="BackgroundImageFix"/>
<feGaussianBlur in="BackgroundImage" stdDeviation="2.5"/>
<feComposite in2="SourceAlpha" operator="in" result="effect1_backgroundBlur"/>
<feBlend mode="normal" in="SourceGraphic" in2="effect1_backgroundBlur" result="shape"/>
</filter>
<filter id="filter1_b" x="-16.8599" y="1.61011" width="533.72" height="390" filterUnits="userSpaceOnUse" color-interpolation-filters="sRGB">
<feFlood flood-opacity="0" result="BackgroundImageFix"/>
<feGaussianBlur in="BackgroundImage" stdDeviation="35"/>
<feComposite in2="SourceAlpha" operator="in" result="effect1_backgroundBlur"/>
<feBlend mode="normal" in="SourceGraphic" in2="effect1_backgroundBlur" result="shape"/>
</filter>
<filter id="filter2_d" x="292.89" y="247.335" width="28.1906" height="28.0393" filterUnits="userSpaceOnUse" color-interpolation-filters="sRGB">
<feFlood flood-opacity="0" result="BackgroundImageFix"/>
<feColorMatrix in="SourceAlpha" type="matrix" values="0 0 0 0 0 0 0 0 0 0 0 0 0 0 0 0 0 0 127 0" result="hardAlpha"/>
<feOffset dy="4"/>
<feGaussianBlur stdDeviation="5"/>
<feComposite in2="hardAlpha" operator="out"/>
<feColorMatrix type="matrix" values="0 0 0 0 0 0 0 0 0 0 0 0 0 0 0 0 0 0 0.25 0"/>
<feBlend mode="normal" in2="BackgroundImageFix" result="effect1_dropShadow"/>
<feBlend mode="normal" in="SourceGraphic" in2="effect1_dropShadow" result="shape"/>
</filter>
<filter id="filter3_d" x="217.66" y="155.609" width="26.07" height="25.9214" filterUnits="userSpaceOnUse" color-interpolation-filters="sRGB">
<feFlood flood-opacity="0" result="BackgroundImageFix"/>
<feColorMatrix in="SourceAlpha" type="matrix" values="0 0 0 0 0 0 0 0 0 0 0 0 0 0 0 0 0 0 127 0" result="hardAlpha"/>
<feOffset dy="4"/>
<feGaussianBlur stdDeviation="4.5"/>
<feComposite in2="hardAlpha" operator="out"/>
<feColorMatrix type="matrix" values="0 0 0 0 0 0 0 0 0 0 0 0 0 0 0 0 0 0 0.27 0"/>
<feBlend mode="normal" in2="BackgroundImageFix" result="effect1_dropShadow"/>
<feBlend mode="normal" in="SourceGraphic" in2="effect1_dropShadow" result="shape"/>
</filter>
<filter id="filter4_d" x="383.207" y="168.285" width="27.2797" height="26.8938" filterUnits="userSpaceOnUse" color-interpolation-filters="sRGB">
<feFlood flood-opacity="0" result="BackgroundImageFix"/>
<feColorMatrix in="SourceAlpha" type="matrix" values="0 0 0 0 0 0 0 0 0 0 0 0 0 0 0 0 0 0 127 0" result="hardAlpha"/>
<feOffset dy="4"/>
<feGaussianBlur stdDeviation="4.5"/>
<feComposite in2="hardAlpha" operator="out"/>
<feColorMatrix type="matrix" values="0 0 0 0 0 0 0 0 0 0 0 0 0 0 0 0 0 0 0.27 0"/>
<feBlend mode="normal" in2="BackgroundImageFix" result="effect1_dropShadow"/>
<feBlend mode="normal" in="SourceGraphic" in2="effect1_dropShadow" result="shape"/>
</filter>
<filter id="filter5_d" x="156.378" y="216.796" width="26.52" height="26.5223" filterUnits="userSpaceOnUse" color-interpolation-filters="sRGB">
<feFlood flood-opacity="0" result="BackgroundImageFix"/>
<feColorMatrix in="SourceAlpha" type="matrix" values="0 0 0 0 0 0 0 0 0 0 0 0 0 0 0 0 0 0 127 0" result="hardAlpha"/>
<feOffset dy="4"/>
<feGaussianBlur stdDeviation="4.5"/>
<feComposite in2="hardAlpha" operator="out"/>
<feColorMatrix type="matrix" values="0 0 0 0 0 0 0 0 0 0 0 0 0 0 0 0 0 0 0.27 0"/>
<feBlend mode="normal" in2="BackgroundImageFix" result="effect1_dropShadow"/>
<feBlend mode="normal" in="SourceGraphic" in2="effect1_dropShadow" result="shape"/>
</filter>
<filter id="filter6_b" x="215.78" y="110.64" width="81.74" height="44.26" filterUnits="userSpaceOnUse" color-interpolation-filters="sRGB">
<feFlood flood-opacity="0" result="BackgroundImageFix"/>
<feGaussianBlur in="BackgroundImage" stdDeviation="4"/>
<feComposite in2="SourceAlpha" operator="in" result="effect1_backgroundBlur"/>
<feBlend mode="normal" in="SourceGraphic" in2="effect1_backgroundBlur" result="shape"/>
</filter>
<filter id="filter7_b" x="354.93" y="138.38" width="81.74" height="36.07" filterUnits="userSpaceOnUse" color-interpolation-filters="sRGB">
<feFlood flood-opacity="0" result="BackgroundImageFix"/>
<feGaussianBlur in="BackgroundImage" stdDeviation="4"/>
<feComposite in2="SourceAlpha" operator="in" result="effect1_backgroundBlur"/>
<feBlend mode="normal" in="SourceGraphic" in2="effect1_backgroundBlur" result="shape"/>
</filter>
<filter id="filter8_b" x="117.773" y="397.478" width="55.9071" height="45.0308" filterUnits="userSpaceOnUse" color-interpolation-filters="sRGB">
<feFlood flood-opacity="0" result="BackgroundImageFix"/>
<feGaussianBlur in="BackgroundImage" stdDeviation="3"/>
<feComposite in2="SourceAlpha" operator="in" result="effect1_backgroundBlur"/>
<feBlend mode="normal" in="SourceGraphic" in2="effect1_backgroundBlur" result="shape"/>
</filter>
<filter id="filter9_b" x="112.729" y="339.605" width="39.6976" height="78.5247" filterUnits="userSpaceOnUse" color-interpolation-filters="sRGB">
<feFlood flood-opacity="0" result="BackgroundImageFix"/>
<feGaussianBlur in="BackgroundImage" stdDeviation="3"/>
<feComposite in2="SourceAlpha" operator="in" result="effect1_backgroundBlur"/>
<feBlend mode="normal" in="SourceGraphic" in2="effect1_backgroundBlur" result="shape"/>
</filter>
<filter id="filter10_b" x="72" y="379.61" width="52.4406" height="38.3237" filterUnits="userSpaceOnUse" color-interpolation-filters="sRGB">
<feFlood flood-opacity="0" result="BackgroundImageFix"/>
<feGaussianBlur in="BackgroundImage" stdDeviation="3"/>
<feComposite in2="SourceAlpha" operator="in" result="effect1_backgroundBlur"/>
<feBlend mode="normal" in="SourceGraphic" in2="effect1_backgroundBlur" result="shape"/>
</filter>
</defs>
</svg>
