<svg width="243" height="121" viewBox="0 0 243 121" fill="none" xmlns="http://www.w3.org/2000/svg">
<circle cx="125.422" cy="67.652" r="52.3014" fill="url(#paint0_linear)" stroke="url(#paint1_linear)"/>
<path d="M137.905 58.2905L120.741 75.4543L112.939 67.6526" stroke="#FDFDFD" stroke-width="5" stroke-linecap="round" stroke-linejoin="round"/>
<path opacity="0.1" d="M225.966 109.56C226.268 109.132 226.434 108.623 226.444 108.099C226.444 104.925 219.968 102.356 211.979 102.356C203.99 102.356 197.514 104.925 197.514 108.099C197.528 108.692 197.737 109.265 198.11 109.728C189.214 110.719 183.223 112.578 183.223 114.711C183.223 117.882 196.468 120.454 212.85 120.454C229.232 120.454 242.477 117.882 242.477 114.711C242.46 112.466 235.726 110.5 225.966 109.56Z" fill="#3A4554"/>
<path opacity="0.1" d="M225.994 8.09711C226.296 7.66831 226.462 7.15929 226.472 6.63542C226.472 3.46146 219.995 0.893066 212.007 0.893066C204.018 0.893066 197.541 3.46146 197.541 6.63542C197.548 7.22565 197.747 7.79759 198.11 8.26416C189.214 9.25602 183.223 11.1145 183.223 13.2478C183.223 16.4183 196.468 18.9902 212.85 18.9902C229.232 18.9902 242.477 16.4183 242.477 13.2478C242.488 11.0031 235.754 9.03677 225.994 8.09711Z" fill="#3A4554"/>
<path opacity="0.1" d="M43.2651 25.8188C43.5667 25.39 43.733 24.881 43.7426 24.3571C43.7426 21.1831 37.2664 18.6147 29.2775 18.6147C21.2885 18.6147 14.8123 21.1831 14.8123 24.3571C14.8268 24.9506 15.0362 25.5228 15.4084 25.9858C6.51318 26.9777 0.521484 28.8361 0.521484 30.9695C0.521484 34.14 13.7841 36.7118 30.1489 36.7118C46.5136 36.7118 59.7763 34.14 59.7763 30.9695C59.7588 28.7248 53.0247 26.7584 43.2651 25.8188Z" fill="#3A4554"/>
<defs>
<linearGradient id="paint0_linear" x1="108.012" y1="48.855" x2="172.514" y2="49.3869" gradientUnits="userSpaceOnUse">
<stop stop-color="#F4672A"/>
<stop offset="1" stop-color="#F27F4D"/>
</linearGradient>
<linearGradient id="paint1_linear" x1="108.012" y1="48.855" x2="172.514" y2="49.3869" gradientUnits="userSpaceOnUse">
<stop stop-color="#F4672A"/>
<stop offset="1" stop-color="#F27F4D"/>
</linearGradient>
</defs>
</svg>
