<svg width="60" height="40" viewBox="0 0 60 40" fill="none" xmlns="http://www.w3.org/2000/svg">
<path d="M20.0648 16.7757C20.0648 17.3108 20.1232 17.7446 20.2252 18.0627C20.3419 18.3808 20.4878 18.7279 20.6919 19.1039C20.7649 19.2195 20.794 19.3352 20.794 19.4365C20.794 19.5811 20.7065 19.7257 20.5169 19.8703L19.5981 20.4776C19.4669 20.5644 19.3356 20.6078 19.2189 20.6078C19.0731 20.6078 18.9273 20.5355 18.7814 20.4053C18.5772 20.1884 18.4022 19.957 18.2564 19.7257C18.1105 19.4798 17.9647 19.2051 17.8043 18.8725C16.6667 20.2029 15.2375 20.868 13.5166 20.868C12.2915 20.868 11.3144 20.521 10.5997 19.8269C9.88511 19.1328 9.52051 18.2073 9.52051 17.0505C9.52051 15.8213 9.95803 14.8236 10.8477 14.0716C11.7373 13.3197 12.9186 12.9437 14.4208 12.9437C14.9166 12.9437 15.4271 12.9871 15.9667 13.0594C16.5063 13.1317 17.0605 13.2474 17.6439 13.3775V12.3219C17.6439 11.2229 17.4105 10.4565 16.9584 10.0082C16.4917 9.55993 15.7042 9.34302 14.5812 9.34302C14.0707 9.34302 13.5457 9.40086 13.0061 9.53101C12.4665 9.66115 11.9415 9.82022 11.431 10.0227C11.1977 10.1239 11.0227 10.1817 10.9206 10.2106C10.8185 10.2396 10.7456 10.254 10.6872 10.254C10.4831 10.254 10.381 10.1094 10.381 9.80576V9.09719C10.381 8.86582 10.4101 8.6923 10.4831 8.59107C10.556 8.48985 10.6872 8.38863 10.8914 8.2874C11.4019 8.02711 12.0144 7.8102 12.729 7.63668C13.4436 7.44869 14.202 7.36193 15.0041 7.36193C16.7396 7.36193 18.0085 7.75236 18.8252 8.53323C19.6273 9.3141 20.0356 10.4999 20.0356 12.0905V16.7757H20.0648ZM14.1437 18.9737C14.6249 18.9737 15.1208 18.887 15.6458 18.7134C16.1709 18.5399 16.6376 18.2218 17.0313 17.788C17.2647 17.5132 17.4397 17.2095 17.5272 16.8625C17.6147 16.5154 17.673 16.0961 17.673 15.6044V14.9971C17.2501 14.8959 16.798 14.8091 16.3313 14.7513C15.8646 14.6934 15.4125 14.6645 14.9604 14.6645C13.9832 14.6645 13.2686 14.8525 12.7873 15.2429C12.3061 15.6333 12.0727 16.1828 12.0727 16.9059C12.0727 17.5855 12.2477 18.0916 12.6123 18.4387C12.9624 18.8002 13.4728 18.9737 14.1437 18.9737ZM25.8547 20.5355C25.5922 20.5355 25.4172 20.4921 25.3005 20.3909C25.1838 20.3041 25.0817 20.1016 24.9942 19.8269L21.567 8.64891C21.4795 8.3597 21.4357 8.17172 21.4357 8.07049C21.4357 7.83913 21.5524 7.70898 21.7857 7.70898H23.215C23.4921 7.70898 23.6817 7.75236 23.7838 7.85359C23.9004 7.94035 23.9879 8.1428 24.0754 8.41755L26.5256 17.9904L28.8007 8.41755C28.8736 8.12834 28.9611 7.94035 29.0778 7.85359C29.1945 7.76682 29.3986 7.70898 29.6612 7.70898H30.8279C31.105 7.70898 31.2946 7.75236 31.4112 7.85359C31.5279 7.94035 31.63 8.1428 31.6883 8.41755L33.9926 18.1061L36.5157 8.41755C36.6032 8.12834 36.7053 7.94035 36.8074 7.85359C36.924 7.76682 37.1136 7.70898 37.3761 7.70898H38.7325C38.9658 7.70898 39.0971 7.82467 39.0971 8.07049C39.0971 8.1428 39.0825 8.2151 39.0679 8.30186C39.0533 8.38863 39.0242 8.50431 38.9658 8.66337L35.451 19.8414C35.3635 20.1306 35.2615 20.3185 35.1448 20.4053C35.0281 20.4921 34.8385 20.5499 34.5906 20.5499H33.3363C33.0593 20.5499 32.8697 20.5065 32.753 20.4053C32.6363 20.3041 32.5342 20.1161 32.4759 19.8269L30.2154 10.4999L27.9694 19.8124C27.8965 20.1016 27.809 20.2896 27.6923 20.3909C27.5756 20.4921 27.3715 20.5355 27.1089 20.5355H25.8547ZM44.5953 20.9259C43.8369 20.9259 43.0785 20.8391 42.3493 20.6656C41.6201 20.4921 41.0513 20.3041 40.6722 20.0872C40.4388 19.957 40.2784 19.8124 40.22 19.6823C40.1617 19.5521 40.1325 19.4075 40.1325 19.2774V18.5399C40.1325 18.2362 40.2492 18.0916 40.468 18.0916C40.5555 18.0916 40.643 18.1061 40.7305 18.135C40.818 18.1639 40.9493 18.2218 41.0951 18.2796C41.591 18.4965 42.1306 18.67 42.6993 18.7857C43.2827 18.9014 43.8515 18.9593 44.4349 18.9593C45.3537 18.9593 46.0683 18.8002 46.5641 18.4821C47.06 18.1639 47.3225 17.7012 47.3225 17.1083C47.3225 16.7034 47.1912 16.3708 46.9287 16.0961C46.6662 15.8213 46.1704 15.5755 45.4557 15.3441L43.341 14.6934C42.2764 14.3608 41.4889 13.8692 41.0076 13.2184C40.5263 12.5822 40.2784 11.8736 40.2784 11.1217C40.2784 10.5143 40.4096 9.97928 40.6722 9.51655C40.9347 9.05381 41.2847 8.64891 41.7222 8.33078C42.1597 7.99819 42.6556 7.75236 43.239 7.57884C43.8223 7.40531 44.4349 7.33301 45.0766 7.33301C45.3974 7.33301 45.7328 7.34747 46.0537 7.39085C46.3891 7.43423 46.6954 7.49207 47.0017 7.54992C47.2933 7.62222 47.5704 7.69452 47.8329 7.78128C48.0955 7.86805 48.2996 7.95481 48.4455 8.04157C48.6497 8.15726 48.7955 8.27294 48.883 8.40309C48.9705 8.51877 49.0143 8.67784 49.0143 8.88028V9.55993C49.0143 9.8636 48.8976 10.0227 48.6788 10.0227C48.5622 10.0227 48.3726 9.96482 48.1246 9.84914C47.2933 9.47316 46.36 9.28518 45.3245 9.28518C44.4932 9.28518 43.8369 9.41532 43.3848 9.69007C42.9327 9.96482 42.6993 10.3842 42.6993 10.9771C42.6993 11.382 42.8452 11.729 43.1369 12.0038C43.4286 12.2785 43.9682 12.5533 44.7411 12.7991L46.8121 13.4498C47.8621 13.7824 48.6205 14.2451 49.0726 14.838C49.5247 15.4309 49.7435 16.1105 49.7435 16.8625C49.7435 17.4843 49.6122 18.0482 49.3643 18.5399C49.1018 19.0316 48.7517 19.4654 48.2996 19.8124C47.8475 20.1739 47.3079 20.4342 46.6808 20.6222C46.0245 20.8247 45.3391 20.9259 44.5953 20.9259Z" fill="#474747"/>
<path fill-rule="evenodd" clip-rule="evenodd" d="M47.3523 27.9539C42.5541 31.4678 35.5829 33.3332 29.5888 33.3332C21.1884 33.3332 13.6192 30.2531 7.90227 25.1341C7.45016 24.7292 7.85852 24.1797 8.39813 24.4978C14.5818 28.0551 22.2093 30.2097 30.0993 30.2097C35.4225 30.2097 41.2707 29.1107 46.6522 26.8549C47.4544 26.4934 48.1398 27.3755 47.3523 27.9539Z" fill="#FF9900"/>
<path fill-rule="evenodd" clip-rule="evenodd" d="M49.3504 25.6977C48.7379 24.9169 45.2961 25.3218 43.7356 25.5097C43.2689 25.5676 43.196 25.1627 43.6189 24.859C46.3607 22.9502 50.8672 23.4997 51.3922 24.136C51.9172 24.7867 51.2464 29.255 48.6796 31.3952C48.2858 31.7278 47.9066 31.5542 48.0816 31.1204C48.665 29.6888 49.963 26.4641 49.3504 25.6977Z" fill="#FF9900"/>
</svg>
