<svg width="60" height="40" viewBox="0 0 60 40" fill="none" xmlns="http://www.w3.org/2000/svg">
<path d="M20.0658 16.7757C20.0658 17.3108 20.1241 17.7446 20.2262 18.0627C20.3429 18.3808 20.4887 18.7279 20.6929 19.1039C20.7658 19.2195 20.795 19.3352 20.795 19.4365C20.795 19.5811 20.7075 19.7257 20.5179 19.8703L19.5991 20.4776C19.4678 20.5644 19.3366 20.6078 19.2199 20.6078C19.0741 20.6078 18.9282 20.5355 18.7824 20.4053C18.5782 20.1884 18.4032 19.957 18.2574 19.7257C18.1115 19.4798 17.9657 19.2051 17.8053 18.8725C16.6677 20.2029 15.2385 20.868 13.5175 20.868C12.2925 20.868 11.3153 20.521 10.6007 19.8269C9.88609 19.1328 9.52148 18.2073 9.52148 17.0505C9.52148 15.8213 9.95901 14.8236 10.8486 14.0716C11.7383 13.3197 12.9196 12.9437 14.4217 12.9437C14.9176 12.9437 15.428 12.9871 15.9677 13.0594C16.5073 13.1317 17.0615 13.2474 17.6448 13.3775V12.3219C17.6448 11.2229 17.4115 10.4565 16.9594 10.0082C16.4927 9.55993 15.7051 9.34302 14.5822 9.34302C14.0717 9.34302 13.5467 9.40086 13.0071 9.53101C12.4675 9.66115 11.9424 9.82022 11.432 10.0227C11.1987 10.1239 11.0236 10.1817 10.9216 10.2106C10.8195 10.2396 10.7465 10.254 10.6882 10.254C10.484 10.254 10.3819 10.1094 10.3819 9.80576V9.09719C10.3819 8.86582 10.4111 8.6923 10.484 8.59107C10.557 8.48985 10.6882 8.38863 10.8924 8.2874C11.4028 8.02711 12.0154 7.8102 12.73 7.63668C13.4446 7.44869 14.203 7.36193 15.0051 7.36193C16.7406 7.36193 18.0094 7.75236 18.8261 8.53323C19.6283 9.3141 20.0366 10.4999 20.0366 12.0905V16.7757H20.0658ZM14.1446 18.9737C14.6259 18.9737 15.1218 18.887 15.6468 18.7134C16.1718 18.5399 16.6385 18.2218 17.0323 17.788C17.2656 17.5132 17.4407 17.2095 17.5282 16.8625C17.6157 16.5154 17.674 16.0961 17.674 15.6044V14.9971C17.2511 14.8959 16.799 14.8091 16.3323 14.7513C15.8656 14.6934 15.4135 14.6645 14.9614 14.6645C13.9842 14.6645 13.2696 14.8525 12.7883 15.2429C12.307 15.6333 12.0737 16.1828 12.0737 16.9059C12.0737 17.5855 12.2487 18.0916 12.6133 18.4387C12.9633 18.8002 13.4738 18.9737 14.1446 18.9737ZM25.8557 20.5355C25.5932 20.5355 25.4182 20.4921 25.3015 20.3909C25.1848 20.3041 25.0827 20.1016 24.9952 19.8269L21.568 8.64891C21.4804 8.3597 21.4367 8.17172 21.4367 8.07049C21.4367 7.83913 21.5534 7.70898 21.7867 7.70898H23.216C23.4931 7.70898 23.6827 7.75236 23.7847 7.85359C23.9014 7.94035 23.9889 8.1428 24.0764 8.41755L26.5266 17.9904L28.8017 8.41755C28.8746 8.12834 28.9621 7.94035 29.0788 7.85359C29.1954 7.76682 29.3996 7.70898 29.6621 7.70898H30.8289C31.106 7.70898 31.2956 7.75236 31.4122 7.85359C31.5289 7.94035 31.631 8.1428 31.6893 8.41755L33.9936 18.1061L36.5167 8.41755C36.6042 8.12834 36.7063 7.94035 36.8083 7.85359C36.925 7.76682 37.1146 7.70898 37.3771 7.70898H38.7334C38.9668 7.70898 39.098 7.82467 39.098 8.07049C39.098 8.1428 39.0835 8.2151 39.0689 8.30186C39.0543 8.38863 39.0251 8.50431 38.9668 8.66337L35.452 19.8414C35.3645 20.1306 35.2624 20.3185 35.1458 20.4053C35.0291 20.4921 34.8395 20.5499 34.5916 20.5499H33.3373C33.0602 20.5499 32.8706 20.5065 32.754 20.4053C32.6373 20.3041 32.5352 20.1161 32.4769 19.8269L30.2163 10.4999L27.9704 19.8124C27.8975 20.1016 27.81 20.2896 27.6933 20.3909C27.5766 20.4921 27.3724 20.5355 27.1099 20.5355H25.8557ZM44.5963 20.9259C43.8379 20.9259 43.0795 20.8391 42.3503 20.6656C41.6211 20.4921 41.0523 20.3041 40.6731 20.0872C40.4398 19.957 40.2794 19.8124 40.221 19.6823C40.1627 19.5521 40.1335 19.4075 40.1335 19.2774V18.5399C40.1335 18.2362 40.2502 18.0916 40.469 18.0916C40.5565 18.0916 40.644 18.1061 40.7315 18.135C40.819 18.1639 40.9502 18.2218 41.0961 18.2796C41.5919 18.4965 42.1315 18.67 42.7003 18.7857C43.2837 18.9014 43.8525 18.9593 44.4358 18.9593C45.3546 18.9593 46.0693 18.8002 46.5651 18.4821C47.061 18.1639 47.3235 17.7012 47.3235 17.1083C47.3235 16.7034 47.1922 16.3708 46.9297 16.0961C46.6672 15.8213 46.1713 15.5755 45.4567 15.3441L43.342 14.6934C42.2774 14.3608 41.4898 13.8692 41.0086 13.2184C40.5273 12.5822 40.2794 11.8736 40.2794 11.1217C40.2794 10.5143 40.4106 9.97928 40.6731 9.51655C40.9356 9.05381 41.2857 8.64891 41.7232 8.33078C42.1607 7.99819 42.6566 7.75236 43.2399 7.57884C43.8233 7.40531 44.4358 7.33301 45.0775 7.33301C45.3984 7.33301 45.7338 7.34747 46.0547 7.39085C46.3901 7.43423 46.6964 7.49207 47.0026 7.54992C47.2943 7.62222 47.5714 7.69452 47.8339 7.78128C48.0964 7.86805 48.3006 7.95481 48.4465 8.04157C48.6506 8.15726 48.7965 8.27294 48.884 8.40309C48.9715 8.51877 49.0152 8.67784 49.0152 8.88028V9.55993C49.0152 9.8636 48.8986 10.0227 48.6798 10.0227C48.5631 10.0227 48.3735 9.96482 48.1256 9.84914C47.2943 9.47316 46.3609 9.28518 45.3255 9.28518C44.4942 9.28518 43.8379 9.41532 43.3858 9.69007C42.9337 9.96482 42.7003 10.3842 42.7003 10.9771C42.7003 11.382 42.8462 11.729 43.1378 12.0038C43.4295 12.2785 43.9691 12.5533 44.7421 12.7991L46.813 13.4498C47.8631 13.7824 48.6215 14.2451 49.0736 14.838C49.5257 15.4309 49.7444 16.1105 49.7444 16.8625C49.7444 17.4843 49.6132 18.0482 49.3653 18.5399C49.1027 19.0316 48.7527 19.4654 48.3006 19.8124C47.8485 20.1739 47.3089 20.4342 46.6818 20.6222C46.0255 20.8247 45.34 20.9259 44.5963 20.9259Z" fill="#CACCCF"/>
<path fill-rule="evenodd" clip-rule="evenodd" d="M47.3528 27.9539C42.5546 31.4678 35.5834 33.3332 29.5893 33.3332C21.1889 33.3332 13.6197 30.2531 7.90276 25.1341C7.45065 24.7292 7.85901 24.1797 8.39862 24.4978C14.5823 28.0551 22.2098 30.2097 30.0998 30.2097C35.423 30.2097 41.2712 29.1107 46.6527 26.8549C47.4548 26.4934 48.1403 27.3755 47.3528 27.9539Z" fill="#CACCCF"/>
<path fill-rule="evenodd" clip-rule="evenodd" d="M49.3509 25.6977C48.7384 24.9169 45.2965 25.3218 43.7361 25.5097C43.2694 25.5676 43.1964 25.1627 43.6194 24.859C46.3612 22.9502 50.8677 23.4997 51.3927 24.136C51.9177 24.7867 51.2469 29.255 48.6801 31.3952C48.2863 31.7278 47.9071 31.5542 48.0821 31.1204C48.6655 29.6888 49.9635 26.4641 49.3509 25.6977Z" fill="#CACCCF"/>
</svg>
