<svg width="20" height="15" viewBox="0 0 20 15" fill="none" xmlns="http://www.w3.org/2000/svg">
<path d="M11.1894 11.9289C11.9152 11.9289 12.6113 11.6406 13.1246 11.1273C13.6378 10.6141 13.9262 9.91798 13.9262 9.19215C13.9262 8.46631 13.6378 7.77021 13.1246 7.25697C12.6113 6.74373 11.9152 6.45539 11.1894 6.45539H10.0947C9.86907 5.69857 9.43735 5.01943 8.84784 4.49391C8.25833 3.96839 7.53425 3.61721 6.75659 3.47964C5.97892 3.34207 5.17831 3.42353 4.44429 3.71491C3.71026 4.00629 3.07176 4.4961 2.60017 5.12958C2.12857 5.76306 1.84249 6.51523 1.7739 7.30199C1.70531 8.08875 1.85692 8.87908 2.21178 9.58461C2.56663 10.2901 3.11075 10.8831 3.78328 11.2971C4.4558 11.7111 5.23024 11.9298 6.01998 11.9289H11.1894Z" stroke="#FBC2AA" stroke-width="1.21634" stroke-linecap="round" stroke-linejoin="round"/>
<path d="M18.1875 4.3623H11.4078" stroke="#FBC2AA" stroke-width="1.21634" stroke-linecap="round" stroke-linejoin="round"/>
<path d="M16.1962 6.79503L18.6289 4.36236L16.1962 1.92969" stroke="#FBC2AA" stroke-width="1.21634" stroke-linecap="round" stroke-linejoin="round"/>
</svg>
