<svg width="19" height="16" viewBox="0 0 19 16" fill="none" xmlns="http://www.w3.org/2000/svg">
<g clip-path="url(#clip0_30:3682)">
<path d="M10.8378 12.4665C11.5637 12.4665 12.2598 12.1782 12.773 11.6649C13.2863 11.1517 13.5746 10.4556 13.5746 9.72975C13.5746 9.00391 13.2863 8.30781 12.773 7.79457C12.2598 7.28132 11.5637 6.99299 10.8378 6.99299H9.74315C9.5175 6.23617 9.08579 5.55703 8.49628 5.03151C7.90676 4.50599 7.18269 4.15481 6.40502 4.01724C5.62736 3.87967 4.82675 3.96113 4.09272 4.25251C3.3587 4.54388 2.72019 5.0337 2.2486 5.66718C1.77701 6.30066 1.49093 7.05283 1.42234 7.83959C1.35375 8.62635 1.50536 9.41668 1.86021 10.1222C2.21507 10.8277 2.75918 11.4207 3.43171 11.8347C4.10424 12.2487 4.87868 12.4674 5.66842 12.4665H10.8378Z" stroke="#F4672A" stroke-width="1.21634" stroke-linecap="round" stroke-linejoin="round"/>
</g>
<path d="M17.8359 4.8999H11.0562" stroke="#F4672A" stroke-width="1.21634" stroke-linecap="round" stroke-linejoin="round"/>
<path d="M15.8447 7.33263L18.2773 4.89996L15.8447 2.46729" stroke="#F4672A" stroke-width="1.21634" stroke-linecap="round" stroke-linejoin="round"/>
<defs>
<clipPath id="clip0_30:3682">
<rect width="14.596" height="14.596" fill="white" transform="translate(0.191406 0.911133)"/>
</clipPath>
</defs>
</svg>
