<svg width="29" height="28" viewBox="0 0 29 28" fill="none" xmlns="http://www.w3.org/2000/svg">
<path d="M14.5001 0.464844C6.76908 0.464844 0.5 6.70239 0.5 14.3971C0.5 20.5528 4.51146 25.7752 10.0741 27.6174C10.7738 27.7464 11.0307 27.3152 11.0307 26.9472C11.0307 26.615 11.0177 25.5175 11.0117 24.3533C7.11683 25.1961 6.29497 22.7095 6.29497 22.7095C5.65812 21.0991 4.74051 20.6709 4.74051 20.6709C3.47028 19.8062 4.83626 19.824 4.83626 19.824C6.24212 19.9222 6.98237 21.2597 6.98237 21.2597C8.23104 23.3896 10.2575 22.7738 11.0564 22.4179C11.1821 21.5174 11.5449 20.9028 11.9453 20.5549C8.83567 20.2026 5.56678 19.0079 5.56678 13.6695C5.56678 12.1484 6.11368 10.9055 7.00926 9.92984C6.8639 9.57892 6.38469 8.16188 7.14489 6.24282C7.14489 6.24282 8.32053 5.86837 10.9959 7.67093C12.1127 7.36223 13.3103 7.20743 14.5001 7.20212C15.6899 7.20743 16.8885 7.36223 18.0073 7.67093C20.6795 5.86837 21.8535 6.24282 21.8535 6.24282C22.6155 8.16188 22.1361 9.57892 21.9907 9.92984C22.8884 10.9055 23.4316 12.1484 23.4316 13.6695C23.4316 19.0206 20.1565 20.1989 17.039 20.5438C17.5411 20.9761 17.9886 21.824 17.9886 23.1238C17.9886 24.988 17.9723 26.4883 17.9723 26.9472C17.9723 27.318 18.2243 27.7524 18.934 27.6156C24.4936 25.7713 28.5 20.5507 28.5 14.3971C28.5 6.70239 22.2318 0.464844 14.5001 0.464844ZM5.7435 20.3117C5.71266 20.3809 5.60324 20.4017 5.50355 20.3541C5.402 20.3087 5.34497 20.2143 5.37789 20.1449C5.40803 20.0736 5.51769 20.0537 5.619 20.1015C5.72078 20.1469 5.77874 20.2422 5.7435 20.3117ZM6.43215 20.9232C6.36538 20.9848 6.23486 20.9562 6.1463 20.8588C6.05472 20.7617 6.03756 20.6318 6.10526 20.5693C6.17412 20.5077 6.3007 20.5365 6.3925 20.6336C6.48408 20.7319 6.50193 20.8609 6.43215 20.9232ZM6.90459 21.7056C6.81881 21.7649 6.67855 21.7093 6.59184 21.5854C6.50606 21.4615 6.50606 21.3129 6.5937 21.2534C6.68063 21.1938 6.81881 21.2474 6.90668 21.3703C6.99222 21.4963 6.99222 21.6449 6.90459 21.7056ZM7.70359 22.6117C7.62685 22.6959 7.4634 22.6733 7.34378 22.5584C7.22137 22.446 7.18729 22.2866 7.26426 22.2024C7.34192 22.118 7.50629 22.1417 7.62685 22.2557C7.74833 22.3678 7.78542 22.5284 7.70359 22.6117ZM8.73621 22.9176C8.70236 23.0267 8.54495 23.0763 8.38637 23.0299C8.22803 22.9822 8.1244 22.8544 8.15639 22.7441C8.18931 22.6343 8.34742 22.5826 8.50716 22.6322C8.66527 22.6797 8.76913 22.8066 8.73621 22.9176ZM9.91138 23.0473C9.91533 23.1622 9.78086 23.2575 9.6144 23.2596C9.44702 23.2633 9.31162 23.1703 9.30977 23.0572C9.30977 22.9412 9.44122 22.8468 9.60861 22.8441C9.77507 22.8408 9.91138 22.9331 9.91138 23.0473ZM11.0659 23.0033C11.0858 23.1154 10.9701 23.2305 10.8048 23.2612C10.6423 23.2908 10.4918 23.2215 10.4712 23.1103C10.451 22.9954 10.5688 22.8803 10.7311 22.8506C10.8966 22.8219 11.0448 22.8893 11.0659 23.0033Z" fill="#161614"/>
</svg>
