<svg width="25" height="24" viewBox="0 0 25 24" fill="none" xmlns="http://www.w3.org/2000/svg">
<path d="M24.4885 12.295C24.4885 11.3117 24.4069 10.5942 24.2301 9.8501H12.739V14.2881H19.484C19.3481 15.391 18.6138 17.0519 16.9819 18.168L16.959 18.3166L20.5923 21.0668L20.844 21.0913C23.1558 19.0052 24.4885 15.9357 24.4885 12.295Z" fill="#4285F4"/>
<path d="M12.7388 23.9881C16.0433 23.9881 18.8174 22.9251 20.8437 21.0914L16.9816 18.1681C15.9481 18.8724 14.561 19.364 12.7388 19.364C9.50224 19.364 6.75527 17.2779 5.77605 14.3945L5.63252 14.4064L1.85458 17.2633L1.80518 17.3975C3.8178 21.304 7.95189 23.9881 12.7388 23.9881Z" fill="#34A853"/>
<path d="M5.77634 14.3941C5.51797 13.65 5.36844 12.8527 5.36844 12.0289C5.36844 11.205 5.51797 10.4078 5.76275 9.66373L5.75591 9.50526L1.93062 6.60254L1.80547 6.66071C0.975969 8.28181 0.5 10.1022 0.5 12.0289C0.5 13.9556 0.975969 15.7759 1.80547 17.397L5.77634 14.3941Z" fill="#FBBC05"/>
<path d="M12.7388 4.69434C15.037 4.69434 16.5872 5.66433 17.4712 6.47492L20.9253 3.17959C18.8039 1.25291 16.0433 0.0703125 12.7388 0.0703125C7.95189 0.0703125 3.8178 2.75437 1.80518 6.66088L5.76246 9.6639C6.75527 6.78051 9.50224 4.69434 12.7388 4.69434Z" fill="#EB4335"/>
</svg>
