<svg width="40" height="40" viewBox="0 0 40 40" fill="none" xmlns="http://www.w3.org/2000/svg">
<g clip-path="url(#clip0)">
<path d="M25.2186 13.3181L26.4678 13.3395L29.862 9.94525L30.0266 8.50712C27.3344 6.10862 23.7799 4.64795 19.8957 4.64795C12.8635 4.64795 6.92821 9.43276 5.17139 15.9141C5.54189 15.6557 6.33407 15.8495 6.33407 15.8495L13.1164 14.7343C13.1164 14.7343 13.465 14.1572 13.6417 14.1859C14.4348 13.3146 15.4011 12.6186 16.4788 12.1425C17.5565 11.6664 18.7218 11.4207 19.9 11.4212C21.9109 11.4254 23.7634 12.1359 25.2186 13.3114V13.3181Z" fill="#CACCCF"/>
<path d="M34.6282 15.9272C33.8403 13.0205 32.2163 10.4538 30.0244 8.50684L25.2183 13.313C27.1439 14.8669 28.3791 17.2447 28.3791 19.9064V20.7547C30.7173 20.7547 32.6167 22.6584 32.6167 24.9923C32.6167 27.3304 30.713 29.2298 28.3791 29.2298H19.9039L19.0557 30.083V35.1688L19.9039 36.0128H28.3791C31.3006 36.0088 34.1013 34.8465 36.1671 32.7807C38.233 30.715 39.3955 27.9144 39.3996 24.9929C39.3954 21.2422 37.5106 17.9241 34.6282 15.9278V15.9272Z" fill="#CACCCF"/>
<path d="M11.4204 36.0185H19.8907V29.2301H11.4204C10.8186 29.2302 10.2238 29.1009 9.67633 28.8511L8.45331 29.2258L5.05909 32.6201L4.76172 33.7657C6.67448 35.2249 9.01393 36.0148 11.4197 36.0137L11.4204 36.0185Z" fill="#CACCCF"/>
<path d="M11.4204 13.9775C8.49896 13.9816 5.69828 15.1439 3.63241 17.2096C1.56655 19.2754 0.404094 22.076 0.399902 24.9975C0.399902 28.5763 2.11407 31.7585 4.76668 33.7743L9.68068 28.8603C8.93689 28.5249 8.30562 27.9821 7.86258 27.2969C7.41954 26.6118 7.18353 25.8134 7.18286 24.9975C7.18286 22.6593 9.08654 20.7599 11.4204 20.7599C13.1389 20.7599 14.616 21.7958 15.2839 23.2583L20.1979 18.3443C18.1827 15.6917 14.9999 13.9775 11.4211 13.9775H11.4204Z" fill="#CACCCF"/>
</g>
<defs>
<clipPath id="clip0">
<rect width="39" height="39" fill="white" transform="translate(0.399902 0.833008)"/>
</clipPath>
</defs>
</svg>
