<svg width="40" height="40" viewBox="0 0 40 40" fill="none" xmlns="http://www.w3.org/2000/svg">
<g clip-path="url(#clip0)">
<path d="M25.2191 13.3181L26.4683 13.3395L29.8625 9.94525L30.0271 8.50712C27.3348 6.10862 23.7804 4.64795 19.8962 4.64795C12.864 4.64795 6.9287 9.43276 5.17188 15.9141C5.54237 15.6557 6.33456 15.8495 6.33456 15.8495L13.1169 14.7343C13.1169 14.7343 13.4655 14.1572 13.6422 14.1859C14.4353 13.3146 15.4016 12.6186 16.4793 12.1425C17.557 11.6664 18.7223 11.4207 19.9005 11.4212C21.9114 11.4254 23.7639 12.1359 25.2191 13.3114V13.3181Z" fill="#EA4335"/>
<path d="M34.6292 15.9272C33.8413 13.0205 32.2173 10.4538 30.0254 8.50684L25.2192 13.313C27.1449 14.8669 28.3801 17.2447 28.3801 19.9064V20.7547C30.7182 20.7547 32.6177 22.6584 32.6177 24.9923C32.6177 27.3304 30.714 29.2298 28.3801 29.2298H19.9049L19.0566 30.083V35.1688L19.9049 36.0128H28.3801C31.3016 36.0088 34.1023 34.8465 36.1681 32.7807C38.234 30.715 39.3964 27.9144 39.4006 24.9929C39.3964 21.2422 37.5116 17.9241 34.6292 15.9278V15.9272Z" fill="#4285F4"/>
<path d="M11.4213 36.0185H19.8916V29.2301H11.4213C10.8195 29.2302 10.2248 29.1009 9.6773 28.8511L8.45429 29.2258L5.06007 32.6201L4.7627 33.7657C6.67545 35.2249 9.01491 36.0148 11.4207 36.0137L11.4213 36.0185Z" fill="#34A853"/>
<path d="M11.4209 13.9775C8.49945 13.9816 5.69876 15.1439 3.6329 17.2096C1.56704 19.2754 0.404582 22.076 0.400391 24.9975C0.400391 28.5763 2.11456 31.7585 4.76717 33.7743L9.68117 28.8603C8.93738 28.5249 8.30611 27.9821 7.86307 27.2969C7.42003 26.6118 7.18402 25.8134 7.18334 24.9975C7.18334 22.6593 9.08703 20.7599 11.4209 20.7599C13.1394 20.7599 14.6165 21.7958 15.2844 23.2583L20.1984 18.3443C18.1832 15.6917 15.0004 13.9775 11.4215 13.9775H11.4209Z" fill="#FBBC05"/>
</g>
<defs>
<clipPath id="clip0">
<rect width="39" height="39" fill="white" transform="translate(0.400391 0.833008)"/>
</clipPath>
</defs>
</svg>
