<svg width="29" height="29" viewBox="0 0 29 29" fill="none" xmlns="http://www.w3.org/2000/svg">
<g clip-path="url(#clip0)">
<path fill-rule="evenodd" clip-rule="evenodd" d="M0.5 3.21509L16.9229 0.00439453L16.8659 28.8306L0.5 25.3932V3.21509ZM6.32315 18.1846C5.08115 16.7132 4.73502 14.401 5.32955 12.4804C6.1562 9.80959 8.25334 8.90697 10.0084 9.5252C11.0102 9.87965 11.902 10.7328 12.3784 12.0394C12.6065 12.6658 12.7286 13.383 12.7368 14.1125C12.7531 15.4232 12.3051 16.9646 11.4174 18.0403C10.0532 19.689 7.74026 19.858 6.32722 18.1846H6.32315ZM7.6018 16.7874C6.99098 15.8683 6.82403 14.4257 7.11315 13.2264C7.51629 11.5613 8.54654 10.9966 9.40576 11.384C9.89849 11.6066 10.3342 12.1383 10.5663 12.9543C10.6763 13.3459 10.7373 13.791 10.7414 14.2485C10.7496 15.0646 10.5297 16.029 10.0939 16.7008C9.42612 17.7312 8.29407 17.8343 7.6018 16.7915V16.7874ZM17.9939 6.07958H27.5268C28.0602 6.07958 28.4959 6.52058 28.4959 7.06051V7.41496L21.0032 12.5298C20.9055 12.5958 20.6652 12.7854 20.4657 12.9131C20.1725 13.1068 20.1521 13.0697 19.8426 12.8925C19.3662 12.6246 18.5436 12.0558 17.9898 11.6684V6.07958H17.9939ZM28.5 9.68594V20.0063C28.5 20.8306 27.8322 21.5107 27.0137 21.5107H17.9939V13.8776C18.5355 14.2403 19.2563 14.7184 19.7001 14.9945C20.0585 15.2171 20.1236 15.3201 20.5227 15.0852C20.7059 14.978 20.8851 14.8379 21.0073 14.7555L28.5 9.69006V9.68594Z" fill="#0072C6"/>
</g>
<defs>
<clipPath id="clip0">
<rect width="28" height="28.8358" fill="white" transform="translate(0.5)"/>
</clipPath>
</defs>
</svg>
